<!-- Generated by IcoMoon.io -->
<svg version="1.1" xmlns="http://www.w3.org/2000/svg" width="25" height="32" viewBox="0 0 25 32">
<title>action</title>
<path fill="#fff" d="M0.007 20.216l0.526 3.158c0.022 0.133 0.095 0.253 0.203 0.335l4.079 3.059 0.474 1.423c0.035 0.105 0.102 0.196 0.192 0.261s0.197 0.099 0.308 0.099c0.029-0 0.058-0.002 0.087-0.007l0.252-0.042-0.312 0.935c-0.018 0.054-0.027 0.11-0.027 0.167v1.579c0 0.14 0.055 0.273 0.154 0.372s0.233 0.154 0.372 0.154h12.632c0.080 0 0.159-0.018 0.231-0.053s0.135-0.086 0.184-0.149c0.049-0.063 0.083-0.137 0.1-0.215s0.015-0.159-0.005-0.237l-0.317-1.26 3.23 1.846c0.116 0.066 0.252 0.086 0.382 0.055s0.243-0.109 0.317-0.22c0 0 1.095-1.657 1.101-1.669 0.002-0.005 0.551-2.179 0.551-2.179 0.029-0.116 0.018-0.239-0.032-0.348s-0.136-0.197-0.243-0.251l-1.053-0.526c-0.099-0.049-0.211-0.066-0.32-0.049s-0.21 0.069-0.288 0.147c0 0-1.148 1.173-1.174 1.243l-1.28-0.715 2.167-2.437c0.074-0.083 0.119-0.187 0.13-0.297l0.526-5.263c0.005-0.052 0.003-0.104-0.008-0.156l-0.824-4.12c-0.163-0.813-0.552-1.563-1.124-2.162s-1.302-1.025-2.107-1.226l-1.050-0.263-2.932-0.978-0.374-0.747v-0.797l0.316-0.237c0.065-0.049 0.118-0.113 0.155-0.186s0.056-0.154 0.056-0.235v-1.053c0.14 0 0.273-0.055 0.372-0.154s0.154-0.233 0.154-0.372v-2.023c0.349-1.074 0.526-2.197 0.526-3.326v-0.441c0-0.14-0.055-0.273-0.154-0.372s-0.233-0.154-0.372-0.154h-2.722c-1.063-0.003-2.085 0.408-2.85 1.145l-0.855 0.427c-0.441 0.221-0.812 0.56-1.071 0.979s-0.397 0.903-0.397 1.396c0 0.493 0.137 0.976 0.397 1.396s0.63 0.758 1.071 0.979l0.115 0.058c0.016 0.127 0.077 0.245 0.174 0.33s0.22 0.132 0.348 0.132v1.053c0 0.082 0.019 0.162 0.056 0.235s0.090 0.137 0.155 0.186l0.316 0.237v0.797l-0.381 0.762-2.352 0.941h-0.345c-1.201 0-2.363 0.426-3.28 1.202s-1.528 1.853-1.725 3.037l-0.309 1.854-2.019 2.524c-0.046 0.058-0.080 0.125-0.098 0.196s-0.022 0.146-0.010 0.219zM6.842 29.689l0.461-1.383 1.731-0.288c0.094-0.016 0.183-0.057 0.255-0.119s0.127-0.143 0.157-0.234l0.35-1.049 3.866 1.546-0.416 0.624c-0.073 0.11-0.102 0.243-0.082 0.373s0.088 0.248 0.191 0.33l1.46 1.168h-7.973v-0.967zM7.53 18.298l0.225 1.801-1.133-0.633 0.908-1.168zM11.895 14.445c0.213 0.158 0.471 0.244 0.737 0.244s0.524-0.086 0.737-0.244c0.991-0.747 1.651-1.851 1.84-3.078l0.052 0.017c-0.024 1.698-0.37 3.376-1.021 4.944-0.261 0.63-0.569 1.239-0.922 1.822l-0.16-0.032v-1.674c0-0.14-0.055-0.273-0.154-0.372s-0.233-0.154-0.372-0.154c-0.14 0-0.273 0.055-0.372 0.154s-0.154 0.233-0.154 0.372v1.694l-1.518 0.379-1.931-0.966c-0.052-0.026-0.107-0.043-0.165-0.050l-0.071-0.564v-4.874l1.64-0.656c0.197 1.21 0.854 2.298 1.834 3.037zM16.936 29.818l-0.659 0.659-1.887-1.51 0.685-1.027 0.505-0.168c0.005-0.002 0.009-0.004 0.014-0.005l1.843 1.053c-0.004 0.007-0.009 0.014-0.012 0.022l-0.488 0.976zM13.383 23.244l1.267-1.393c1.102-1.211 1.991-2.601 2.628-4.109l-0.942 3.296c-0.013 0.047-0.020 0.096-0.020 0.144v3.7l-2.933-1.639zM17.368 21.256l0.661-2.312 0.392 0.784v3.391l-1.053 1.474v-3.337zM17.368 12.094c0.003 3.347-1.245 6.573-3.498 9.048l-1.431 1.574-1.059-0.592 0.687-0.687c2.585-2.585 4.099-6.051 4.237-9.704l1.064 0.355v0.007zM8.896 20.736l-0.251-2.012 1.647 0.823c0.112 0.056 0.241 0.070 0.363 0.040l1.99-0.498 0.043 0.009c-0.412 0.566-0.868 1.099-1.364 1.595l-0.898 0.898-1.53-0.855zM5.968 20.306l5.203 2.908-0.556 0.835c-0.039 0.057-0.066 0.122-0.080 0.19s-0.014 0.138-0 0.206c0.013 0.068 0.040 0.133 0.079 0.19s0.088 0.107 0.146 0.146c0.058 0.038 0.122 0.065 0.19 0.079s0.138 0.013 0.206-0.001 0.133-0.041 0.19-0.080c0.057-0.039 0.107-0.089 0.145-0.147l0.602-0.903 0.74 0.413-0.639 0.959c-0.039 0.057-0.066 0.122-0.080 0.19s-0.014 0.138-0 0.206c0.013 0.068 0.040 0.133 0.079 0.19s0.088 0.107 0.146 0.146c0.058 0.038 0.122 0.065 0.19 0.079s0.138 0.013 0.206-0.001 0.133-0.041 0.19-0.080c0.057-0.039 0.107-0.089 0.145-0.147l0.685-1.027 1.823 1.019-0.774 1.245-0.233 0.078c-0.111 0.037-0.207 0.11-0.271 0.207l-0.040 0.060-4.489-1.796-1.503-1.503c-0.049-0.049-0.107-0.088-0.171-0.114s-0.132-0.040-0.202-0.040h-1.326l-1.688-2.11 1.087-1.398zM17.586 30.656l0.154-0.154c0.040-0.040 0.073-0.086 0.099-0.137l0.239-0.478 0.194 0.769h-0.686zM22.466 30.482l-6.373-3.641 0.404-0.65 6.433 3.595-0.464 0.696zM23.262 27.612l0.336 0.168-0.257 1.028-0.818-0.457 0.739-0.739zM20.382 13.361c0.465 0.464 0.781 1.055 0.909 1.699l0.808 4.043-0.501 5.015-2.207 2.483-1.547-0.864 1.531-2.144c0.064-0.089 0.098-0.196 0.098-0.306v-3.684c0-0.082-0.019-0.162-0.056-0.235l-0.997-1.994v-4.991l0.416 0.104c0.585 0.146 1.119 0.448 1.545 0.875zM10.526 5.919v-1.053h4.211v1.053h-0.928l-0.942-0.471c-0.073-0.037-0.154-0.056-0.235-0.056s-0.162 0.019-0.235 0.056l-0.942 0.471h-0.928zM8.947 4.077c-0.001-0.298 0.081-0.59 0.238-0.843s0.381-0.458 0.648-0.59l0.928-0.464c0.051-0.025 0.097-0.059 0.137-0.099 0.284-0.286 0.622-0.512 0.995-0.666s0.772-0.233 1.175-0.232h2.195c-0.008 0.891-0.138 1.776-0.387 2.632h-4.876c-0.14 0-0.273 0.055-0.372 0.154s-0.154 0.233-0.154 0.372v0.925c-0.166-0.15-0.299-0.333-0.39-0.538s-0.137-0.426-0.136-0.65zM11.579 6.972c0.082 0 0.162-0.019 0.235-0.056l0.817-0.409 0.817 0.409c0.073 0.037 0.154 0.056 0.235 0.056h0.526v0.789l-1.053 0.789h-1.053l-1.053-0.789v-0.789h0.526zM11.614 9.498c0.091 0.068 0.202 0.105 0.316 0.105h1.404c0.114 0 0.225-0.037 0.316-0.105l0.035-0.026v0.132c0 0.082 0.019 0.162 0.056 0.235l0.467 0.934c-0.019 0.552-0.16 1.092-0.415 1.582s-0.615 0.916-1.055 1.249c-0.030 0.023-0.067 0.035-0.105 0.035s-0.075-0.012-0.105-0.035c-0.44-0.332-0.801-0.759-1.055-1.249s-0.396-1.030-0.415-1.581l0.467-0.934c0.037-0.073 0.056-0.154 0.056-0.236v-0.132l0.035 0.026zM3.043 17.827c0.056-0.070 0.093-0.154 0.108-0.242l0.332-1.99c0.154-0.925 0.627-1.768 1.337-2.381s1.612-0.96 2.549-0.978v4.555l-1.826 2.348c-0.065 0.035-0.123 0.083-0.168 0.141s-0.078 0.126-0.095 0.198l-1.484 1.908c-0.073 0.093-0.112 0.208-0.111 0.327s0.041 0.233 0.115 0.325l2.105 2.632c0.049 0.062 0.112 0.111 0.183 0.145s0.149 0.052 0.228 0.052h1.361l1.195 1.195-0.323 0.97-2.402 0.4-0.384-1.152c-0.034-0.102-0.098-0.19-0.184-0.255l-4.042-3.031-0.453-2.718 1.958-2.448z"></path>
</svg>
