<!-- Generated by IcoMoon.io -->
<svg version="1.1" xmlns="http://www.w3.org/2000/svg" width="29" height="32" viewBox="0 0 29 32">
<title>bell</title>
<path fill="#fff" d="M13.289 31.357c0.56-0.014 1.097-0.237 1.517-0.63s0.695-0.931 0.776-1.518h-4.676c0.084 0.603 0.372 1.154 0.81 1.549s0.997 0.608 1.572 0.599z"></path>
<path fill="none" stroke="#fff" stroke-linejoin="miter" stroke-linecap="butt" stroke-miterlimit="4" stroke-width="1.3333" d="M13.289 31.357c0.56-0.014 1.097-0.237 1.517-0.63s0.695-0.931 0.776-1.518h-4.676c0.084 0.603 0.372 1.154 0.81 1.549s0.997 0.608 1.572 0.599z"></path>
<path fill="#fff" d="M26.362 24.553c-0.863-0.786-1.618-1.687-2.246-2.679-0.685-1.369-1.096-2.865-1.208-4.398v-4.517c-0.004-0.549-0.051-1.096-0.143-1.637-0.704-0.144-1.381-0.403-2.004-0.768 0.237 0.782 0.358 1.595 0.358 2.414v4.517c0.11 1.871 0.613 3.695 1.477 5.349 0.618 1 1.351 1.921 2.183 2.743h-22.917c0.833-0.822 1.566-1.743 2.183-2.743 0.863-1.654 1.367-3.478 1.476-5.349v-4.526c-0.005-1.058 0.195-2.107 0.587-3.086s0.97-1.87 1.7-2.621c0.73-0.751 1.597-1.347 2.553-1.755s1.981-0.619 3.016-0.621c1.516 0.001 2.997 0.459 4.259 1.317-0.139-0.522-0.217-1.059-0.233-1.6v-0.576c-0.934-0.47-1.938-0.779-2.971-0.914v-1.152c0-0.324-0.126-0.634-0.35-0.863s-0.528-0.358-0.845-0.358c-0.317 0-0.621 0.129-0.845 0.358s-0.35 0.539-0.35 0.863v1.198c-2.313 0.333-4.429 1.51-5.959 3.313s-2.369 4.111-2.364 6.497v4.517c-0.112 1.533-0.523 3.029-1.208 4.398-0.617 0.99-1.36 1.891-2.21 2.679-0.095 0.086-0.172 0.191-0.224 0.309s-0.080 0.247-0.080 0.376v1.244c0 0.242 0.094 0.475 0.262 0.647s0.395 0.268 0.633 0.268h24.877c0.237 0 0.465-0.096 0.633-0.268s0.262-0.404 0.262-0.647v-1.244c-0-0.13-0.027-0.258-0.080-0.376s-0.129-0.224-0.224-0.309z"></path>
<path fill="#000" d="M23.955 9.422c2.455 0 4.444-2.109 4.444-4.711s-1.99-4.711-4.444-4.711c-2.455 0-4.444 2.109-4.444 4.711s1.99 4.711 4.444 4.711z"></path>
<path fill="none" stroke="#fff" stroke-linejoin="miter" stroke-linecap="butt" stroke-miterlimit="4" stroke-width="1.3333" d="M23.955 9.422c2.455 0 4.444-2.109 4.444-4.711s-1.99-4.711-4.444-4.711c-2.455 0-4.444 2.109-4.444 4.711s1.99 4.711 4.444 4.711z"></path>
</svg>
