<!-- Generated by IcoMoon.io -->
<svg version="1.1" xmlns="http://www.w3.org/2000/svg" width="32" height="32" viewBox="0 0 32 32">
<title>cinema</title>
<path fill="#fff" d="M29.971 1.252l-0.516-0.128c-5.717-1.424-11.695-1.424-17.412 0l-0.515 0.128c-1.193 0.297-2.031 1.369-2.029 2.599v3.73c-2.663 0.754-5.231 1.813-7.652 3.155l-0.468 0.258c-1.076 0.594-1.607 1.847-1.286 3.033l1.559 5.83c1.406 5.232 5.274 9.451 10.365 11.304l1.607 0.589c1.907 0.686 4.038 0.113 5.345-1.435l1.097-1.311c1.022-1.215 1.86-2.573 2.489-4.031 0.338-0.131 0.66-0.301 0.96-0.505l1.401-0.981c4.438-3.11 7.082-8.188 7.084-13.607v-6.031c0.001-1.229-0.836-2.302-2.029-2.599zM19.246 28.317l-1.098 1.312c-1.017 1.204-2.675 1.65-4.158 1.116l-1.607-0.589c-4.762-1.734-8.381-5.681-9.696-10.575l-1.56-5.83c-0.192-0.711 0.126-1.461 0.77-1.817l0.467-0.258c2.26-1.253 4.653-2.252 7.134-2.979v1.186c0.004 4.799 2.082 9.362 5.699 12.515-0.942 0.383-1.937 0.622-2.951 0.709l-4.029 0.327c-0.244 0.019-0.444 0.201-0.486 0.443s0.085 0.48 0.308 0.58l5.341 2.411c1.163 0.527 2.536 0.16 3.281-0.878l1.169-1.626 0.153 0.107c0.811 0.566 1.776 0.869 2.765 0.868 0.161 0 0.316-0.020 0.474-0.036-0.538 1.079-1.202 2.091-1.978 3.015zM16.142 23.16c0.146 0.107 0.289 0.223 0.439 0.328l0.371 0.26-1.161 1.616c-0.447 0.622-1.271 0.842-1.969 0.525l-3.449-1.554 1.96-0.161c1.32-0.111 2.609-0.454 3.809-1.014zM30.929 9.882c-0.002 5.070-2.475 9.819-6.627 12.729l-1.401 0.981c-1.293 0.901-3.010 0.901-4.302 0l-1.401-0.981c-4.152-2.909-6.625-7.659-6.627-12.729v-6.031c0-0.737 0.502-1.38 1.217-1.559l0.516-0.129c5.546-1.381 11.346-1.381 16.892 0l0.516 0.129c0.715 0.179 1.217 0.822 1.217 1.559v6.031z"></path>
<path fill="#fff" d="M18.763 10.057l0.731-0.784c-1.675-1.671-4.387-1.671-6.062 0l-0.027 0.027 0.784 0.731c0.607-0.608 1.433-0.947 2.292-0.942s1.681 0.354 2.281 0.969z"></path>
<path fill="#fff" d="M22.004 9.273l-0.027 0.027 0.784 0.731c0.607-0.608 1.433-0.947 2.292-0.942s1.681 0.354 2.281 0.969l0.731-0.784c-1.675-1.671-4.386-1.671-6.062 0z"></path>
<path fill="#fff" d="M7.639 17.822c0.838-0.225 1.73-0.101 2.476 0.342l0.499-0.949c-2.050-1.183-4.671-0.481-5.855 1.568l-0.019 0.033 0.463 0.268 0.482 0.235c0.425-0.74 1.128-1.279 1.953-1.496z"></path>
<path fill="#fff" d="M26.546 15.044l-3.976 0.723c-1.204 0.22-2.439 0.22-3.643 0l-3.977-0.723c-0.24-0.044-0.48 0.081-0.582 0.302s-0.042 0.485 0.147 0.639l4.537 3.711c0.988 0.804 2.405 0.804 3.392 0l4.536-3.712c0.189-0.155 0.25-0.418 0.147-0.639s-0.342-0.346-0.582-0.302v0.001zM21.767 18.868c-0.593 0.483-1.443 0.483-2.036 0l-2.933-2.399 1.938 0.352c1.331 0.243 2.694 0.243 4.025 0l1.938-0.352-2.932 2.399z"></path>
</svg>
