<!-- Generated by IcoMoon.io -->
<svg version="1.1" xmlns="http://www.w3.org/2000/svg" width="32" height="32" viewBox="0 0 32 32">
<title>documentary</title>
<path fill="#fff" d="M20.691 27.666c0.404-0.437 0.577-0.973 0.577-1.566 0-0.594-0.17-1.134-0.577-1.571-0.397-0.426-0.898-0.623-1.475-0.623-0.579 0-1.086 0.191-1.486 0.616-0.409 0.435-0.577 0.973-0.577 1.568 0 0.598 0.168 1.143 0.579 1.582 0.398 0.426 0.9 0.623 1.479 0.623 0.581 0 1.084-0.198 1.481-0.628zM18.562 26.96c-0.193-0.246-0.251-0.559-0.251-0.865 0-0.304 0.064-0.605 0.259-0.844 0.166-0.205 0.377-0.308 0.641-0.308 0.266 0 0.482 0.097 0.646 0.308 0.193 0.244 0.253 0.55 0.253 0.855s-0.064 0.609-0.255 0.851c-0.167 0.21-0.379 0.312-0.645 0.312-0.267 0-0.482-0.097-0.648-0.308z"></path>
<path fill="#fff" d="M16.534 23.977h-2.079c-0.142 0-0.266 0.055-0.363 0.157-0.096 0.101-0.147 0.223-0.147 0.363 0 0.147 0.051 0.274 0.156 0.377 0.097 0.092 0.214 0.147 0.349 0.147h0.485v2.683c0 0.154 0.057 0.288 0.165 0.396l0.002 0.004 0.003 0.002c0.113 0.101 0.248 0.163 0.4 0.163 0.15 0 0.281-0.060 0.386-0.168 0.106-0.11 0.163-0.242 0.163-0.396v-2.677h0.48c0.14 0 0.264-0.051 0.363-0.152s0.152-0.225 0.152-0.366c0-0.143-0.051-0.271-0.151-0.373s-0.223-0.157-0.365-0.157z"></path>
<path fill="#fff" d="M12.507 27.107c-0.090 0.069-0.2 0.094-0.313 0.094-0.175 0-0.379-0.062-0.542-0.122-0.115-0.041-0.31-0.111-0.43-0.111-0.142 0-0.266 0.053-0.36 0.159-0.097 0.108-0.14 0.239-0.14 0.382v0.028c0 0.272 0.214 0.444 0.439 0.552 0.305 0.145 0.655 0.189 0.988 0.189 0.432 0 0.852-0.105 1.183-0.398 0.31-0.276 0.455-0.63 0.455-1.046 0-0.439-0.17-0.796-0.546-1.026-0.232-0.149-0.549-0.248-0.813-0.324-0.106-0.028-0.212-0.060-0.315-0.099-0.035-0.012-0.103-0.037-0.135-0.060-0.033-0.028-0.073-0.067-0.073-0.115 0-0.067 0.034-0.113 0.085-0.152 0.074-0.055 0.161-0.076 0.251-0.076 0.087 0 0.198 0.028 0.281 0.052l0.158 0.055c0.097 0.032 0.227 0.073 0.329 0.073 0.144 0 0.266-0.057 0.361-0.163 0.096-0.104 0.144-0.232 0.144-0.374 0-0.246-0.168-0.414-0.372-0.525-0.253-0.136-0.545-0.182-0.829-0.182-0.416 0-0.804 0.11-1.125 0.382-0.301 0.26-0.453 0.595-0.453 0.994 0 0.38 0.14 0.697 0.46 0.906 0.096 0.064 0.213 0.113 0.321 0.156 0.158 0.060 0.321 0.111 0.484 0.159 0.15 0.044 0.328 0.095 0.471 0.161 0.039 0.018 0.092 0.048 0.115 0.087 0.021 0.039 0.030 0.085 0.030 0.129 0 0.092-0.037 0.159-0.112 0.216z"></path>
<path fill="#fff" d="M26.717 28.101c0.11 0.106 0.241 0.166 0.393 0.166 0.156 0 0.292-0.060 0.398-0.175 0.104-0.112 0.161-0.246 0.161-0.4v-1.433l1.040-1.423c0.074-0.101 0.11-0.216 0.11-0.34 0-0.156-0.060-0.29-0.173-0.396-0.108-0.104-0.241-0.163-0.392-0.163-0.193 0-0.349 0.085-0.457 0.244l-0.687 0.986-0.682-0.986c-0.106-0.161-0.264-0.244-0.457-0.244-0.158 0-0.299 0.055-0.411 0.168-0.106 0.106-0.167 0.239-0.167 0.391 0 0.126 0.048 0.241 0.122 0.34l1.029 1.423v1.433c0 0.159 0.057 0.299 0.172 0.409z"></path>
<path fill="#fff" d="M25.033 25.343c0-0.389-0.136-0.724-0.428-0.984-0.297-0.265-0.664-0.375-1.061-0.375h-1.027c-0.158 0-0.296 0.055-0.406 0.166-0.113 0.113-0.166 0.255-0.166 0.414v3.128c0 0.157 0.055 0.296 0.166 0.407l0.002 0.004 0.002 0.002c0.115 0.101 0.248 0.163 0.402 0.163 0.151 0 0.285-0.053 0.393-0.161 0.108-0.11 0.161-0.244 0.161-0.398v-0.904l1.001 1.231c0.113 0.14 0.259 0.232 0.441 0.232 0.152 0 0.289-0.055 0.402-0.159l0.003-0.002 0.002-0.003c0.103-0.113 0.163-0.246 0.163-0.4 0-0.14-0.051-0.262-0.145-0.366l-0.754-0.83c0.127-0.035 0.257-0.083 0.358-0.152 0.347-0.239 0.492-0.596 0.492-1.012zM23.806 25.61c-0.073 0.069-0.156 0.105-0.257 0.105h-0.473v-0.681h0.462c0.101 0 0.191 0.026 0.264 0.101l0.002 0.002 0.004 0.002c0.069 0.062 0.106 0.135 0.106 0.228 0 0.097-0.037 0.175-0.108 0.244z"></path>
<path fill="#fff" d="M7.174 28.108c0.108 0.11 0.242 0.165 0.396 0.165 0.156 0 0.291-0.058 0.399-0.172 0.104-0.11 0.161-0.241 0.161-0.393v-3.201c0-0.157-0.055-0.295-0.165-0.409-0.108-0.108-0.241-0.166-0.395-0.166s-0.287 0.065-0.393 0.177c-0.104 0.112-0.167 0.244-0.167 0.398v1.023h-1.468v-1.023c0-0.156-0.055-0.292-0.161-0.403s-0.239-0.172-0.393-0.172c-0.156 0-0.291 0.064-0.399 0.177-0.106 0.112-0.167 0.244-0.167 0.398v3.201c0 0.156 0.055 0.292 0.167 0.402 0.11 0.108 0.244 0.163 0.399 0.163s0.289-0.055 0.395-0.165c0.108-0.11 0.159-0.246 0.159-0.4v-1.134h1.468v1.134c0 0.156 0.055 0.29 0.163 0.4z"></path>
<path fill="#fff" d="M9.090 24.109c-0.104 0.112-0.167 0.244-0.167 0.398v3.196c0 0.154 0.055 0.29 0.163 0.4s0.244 0.165 0.397 0.165c0.154 0 0.289-0.055 0.397-0.165 0.108-0.108 0.163-0.241 0.163-0.395v-3.201c0-0.156-0.053-0.292-0.161-0.404-0.106-0.111-0.239-0.172-0.393-0.172-0.156 0-0.29 0.064-0.398 0.177z"></path>
<path fill="#fff" d="M31.37 9.983h-23.457l23.030-4.452c0.164-0.032 0.309-0.127 0.403-0.266s0.128-0.309 0.096-0.473l-0.696-3.594c-0.066-0.342-0.397-0.565-0.739-0.499l-6.6 1.276c-0.014 0.002-0.028 0.005-0.041 0.008l-19.95 3.856c-0.002 0-0.004 0.001-0.006 0.001l-2.899 0.56c-0.164 0.032-0.309 0.127-0.403 0.266s-0.128 0.309-0.097 0.473l0.685 3.534v20.009c0 0.348 0.282 0.63 0.63 0.63h12.034c0.348 0 0.63-0.282 0.63-0.63s-0.282-0.63-0.63-0.63h-11.404v-15.148h28.783v15.148h-11.705c-0.348 0-0.63 0.282-0.63 0.63s0.282 0.63 0.63 0.63h12.335c0.348 0 0.63-0.282 0.63-0.63v-20.070c0-0.348-0.282-0.63-0.63-0.63zM21.268 13.644l1.802-2.401h3.506l-1.802 2.401h-3.506zM16.185 13.644l1.801-2.401h3.508l-1.802 2.401h-3.507zM11.101 13.644l1.802-2.401h3.507l-1.801 2.401h-3.508zM6.018 13.644l1.802-2.401h3.507l-1.802 2.401h-3.507zM1.957 10.613c0-0.355 0.289-0.644 0.645-0.644s0.645 0.289 0.645 0.644c0 0.355-0.289 0.644-0.645 0.644s-0.645-0.289-0.645-0.644zM8.379 6.164l2.521 1.958-3.347 0.647-2.52-1.958 3.345-0.647zM13.369 5.199l2.521 1.958-3.345 0.647-2.521-1.958 3.345-0.646zM18.36 4.234l2.52 1.958-3.345 0.646-2.52-1.958 3.345-0.647zM23.352 3.27l2.519 1.958-3.345 0.647-2.52-1.958 3.347-0.647zM30.084 4.413l-2.568 0.496-2.519-1.958 4.631-0.895 0.456 2.356zM3.388 7.128l2.52 1.958-1.81 0.35c-0.349-0.443-0.89-0.728-1.496-0.728-0.347 0-0.672 0.094-0.952 0.256l-0.28-1.446 2.019-0.39zM1.957 12.405c0.202 0.073 0.419 0.113 0.645 0.113 0.83 0 1.537-0.533 1.798-1.274h1.845l-1.802 2.401h-2.485v-1.239zM26.351 13.644l1.802-2.401h2.586v2.401h-4.388z"></path>
<path fill="#fff" d="M28.196 21.616c0.348 0 0.63-0.282 0.63-0.63v-2.578c0-0.348-0.282-0.63-0.63-0.63h-24.050c-0.348 0-0.63 0.282-0.63 0.63v2.578c0 0.348 0.282 0.63 0.63 0.63h24.050zM27.566 20.356h-7.012v-1.318h7.012v1.318zM19.293 20.356h-7.286v-1.318h7.286v1.318zM4.776 19.038h5.97v1.318h-5.97v-1.318z"></path>
<path fill="#fff" d="M16.22 30.053h-0.010c-0.348 0-0.63 0.282-0.63 0.63s0.282 0.63 0.63 0.63h0.010c0.348 0 0.63-0.282 0.63-0.63s-0.282-0.63-0.63-0.63z"></path>
</svg>
