<!-- Generated by IcoMoon.io -->
<svg version="1.1" xmlns="http://www.w3.org/2000/svg" width="32" height="32" viewBox="0 0 32 32">
<title>ghost-1</title>
<path fill="#fff" d="M31.167 10.043c-0.095-0.225-0.235-0.428-0.412-0.596s-0.388-0.298-0.618-0.38-0.475-0.116-0.718-0.099c-0.244 0.017-0.481 0.084-0.698 0.198-0.823 0.431-1.614 0.922-2.366 1.467 0-0.092 0-0.185 0-0.277 0-2.746-1.091-5.38-3.033-7.322s-4.575-3.033-7.322-3.033c-2.746 0-5.38 1.091-7.322 3.033s-3.033 4.575-3.033 7.322v0.277c-0.752-0.545-1.543-1.035-2.366-1.467-0.39-0.207-0.843-0.26-1.27-0.15s-0.797 0.377-1.037 0.747-0.333 0.817-0.26 1.252c0.073 0.435 0.306 0.827 0.654 1.099 1.484 1.212 2.798 2.618 3.905 4.181-0.214 1.714-0.52 3.415-0.916 5.095l-1.39 5.656c-0.014 0.058-0.016 0.119-0.006 0.178s0.032 0.116 0.065 0.166c0.033 0.050 0.076 0.093 0.126 0.126s0.106 0.055 0.166 0.066l1.635 0.285c0.29 0.051 0.566 0.163 0.809 0.329s0.447 0.383 0.6 0.636l0.199 0.33c0.29 0.479 0.71 0.865 1.211 1.114s1.064 0.348 1.62 0.288l0.385-0.042c0.292-0.032 0.587-0.001 0.866 0.091s0.535 0.242 0.751 0.44l0.257 0.237c0.42 0.387 0.945 0.643 1.508 0.736s1.142 0.019 1.665-0.212l0.343-0.152c0.263-0.116 0.546-0.175 0.833-0.175s0.571 0.060 0.834 0.175l0.343 0.152c0.522 0.232 1.101 0.306 1.665 0.213s1.088-0.349 1.508-0.736l0.257-0.237c0.216-0.198 0.472-0.349 0.751-0.44s0.574-0.123 0.866-0.091l0.386 0.042c0.556 0.060 1.119-0.040 1.62-0.288s0.922-0.635 1.211-1.114l0.2-0.33c0.152-0.252 0.356-0.469 0.599-0.636s0.519-0.279 0.809-0.329l1.635-0.285c0.059-0.010 0.115-0.033 0.166-0.066s0.093-0.076 0.126-0.126c0.033-0.050 0.055-0.107 0.065-0.166s0.008-0.12-0.006-0.178l-1.389-5.653c-0.397-1.682-0.704-3.385-0.918-5.1 1.108-1.563 2.422-2.969 3.906-4.181 0.304-0.238 0.521-0.57 0.617-0.944s0.067-0.77-0.084-1.125zM30.096 11.422c-1.602 1.306-3.012 2.83-4.19 4.528-0.056 0.086-0.080 0.189-0.067 0.29 0.219 1.802 0.538 3.591 0.955 5.358l1.278 5.2-1.175 0.205c-0.414 0.072-0.807 0.232-1.154 0.469s-0.638 0.546-0.854 0.906l-0.2 0.33c-0.203 0.336-0.498 0.607-0.85 0.781s-0.746 0.245-1.137 0.203l-0.386-0.042c-0.416-0.045-0.837-0.001-1.234 0.129s-0.762 0.345-1.070 0.628l-0.257 0.236c-0.295 0.272-0.663 0.451-1.058 0.516s-0.802 0.014-1.168-0.149l-0.343-0.152c-0.374-0.166-0.778-0.251-1.187-0.251s-0.813 0.085-1.188 0.251l-0.343 0.152c-0.367 0.162-0.773 0.214-1.168 0.149s-0.763-0.245-1.058-0.516l-0.257-0.236c-0.308-0.283-0.673-0.497-1.070-0.628s-0.818-0.175-1.234-0.129l-0.386 0.042c-0.39 0.042-0.785-0.029-1.136-0.203s-0.647-0.445-0.85-0.781l-0.199-0.33c-0.217-0.36-0.508-0.669-0.854-0.906s-0.74-0.397-1.154-0.469l-1.175-0.205 1.279-5.205c0.417-1.766 0.736-3.553 0.954-5.354 0.012-0.102-0.012-0.205-0.067-0.291-1.177-1.697-2.587-3.221-4.188-4.527-0.173-0.138-0.289-0.335-0.324-0.554s0.012-0.442 0.133-0.628c0.121-0.185 0.307-0.319 0.521-0.375s0.441-0.029 0.637 0.074c1.034 0.538 2.011 1.178 2.916 1.911 0.063 0.052 0.14 0.086 0.221 0.097s0.164-0.001 0.239-0.035c0.075-0.034 0.138-0.088 0.184-0.156s0.071-0.148 0.073-0.23c0.009-0.39 0.017-0.78 0.017-1.17 0-2.514 0.999-4.925 2.776-6.703s4.189-2.776 6.703-2.776c2.514 0 4.925 0.999 6.703 2.776s2.776 4.189 2.776 6.703c0 0.39 0.008 0.78 0.017 1.17 0.002 0.082 0.027 0.162 0.072 0.231s0.109 0.123 0.184 0.157 0.158 0.046 0.239 0.036c0.081-0.011 0.158-0.044 0.221-0.097 0.906-0.733 1.883-1.373 2.916-1.911 0.109-0.057 0.229-0.091 0.351-0.1s0.246 0.009 0.362 0.050c0.116 0.042 0.222 0.107 0.311 0.192s0.16 0.187 0.208 0.301c0.076 0.178 0.092 0.376 0.044 0.564s-0.156 0.355-0.308 0.475z"></path>
<path fill="#fff" d="M12.766 5.531c-1.008 0-1.828 1.003-1.828 2.235s0.82 2.234 1.828 2.234c1.008 0 1.828-1.003 1.828-2.234s-0.819-2.235-1.828-2.235zM12.766 9.125c-0.517 0-0.953-0.623-0.953-1.359s0.438-1.36 0.953-1.36c0.515 0 0.953 0.623 0.953 1.36s-0.437 1.359-0.953 1.359z"></path>
<path fill="#fff" d="M19.234 5.531c-1.008 0-1.828 1.003-1.828 2.235s0.82 2.234 1.828 2.234c1.008 0 1.828-1.003 1.828-2.234s-0.82-2.235-1.828-2.235zM19.234 9.125c-0.516 0-0.953-0.623-0.953-1.359s0.437-1.36 0.953-1.36c0.517 0 0.953 0.623 0.953 1.36s-0.438 1.359-0.953 1.359z"></path>
<path fill="#fff" d="M16 9.719c-1.060 0-1.891 1.27-1.891 2.891s0.831 2.89 1.891 2.89c1.060 0 1.89-1.27 1.89-2.89s-0.83-2.891-1.89-2.891zM16 14.625c-0.48 0-1.016-0.862-1.016-2.015s0.536-2.016 1.016-2.016c0.479 0 1.015 0.862 1.015 2.016s-0.536 2.015-1.015 2.015z"></path>
</svg>
