<!-- Generated by IcoMoon.io -->
<svg version="1.1" xmlns="http://www.w3.org/2000/svg" width="32" height="32" viewBox="0 0 32 32">
<title>hearts</title>
<path fill="#fff" d="M31.698 12.905c0-2.305-0.876-4.466-2.466-6.086-1.599-1.628-3.744-2.525-6.039-2.525-2.923 0-5.608 1.465-7.193 3.876-1.585-2.41-4.27-3.876-7.193-3.876-2.295 0-4.44 0.897-6.039 2.525-1.59 1.619-2.466 3.781-2.466 6.086 0 2.16 0.625 3.423 1.128 4.438l0.055 0.11c2.080 4.214 13.71 13.88 14.204 14.289l0.311 0.258 0.312-0.257c0.012-0.010 1.109-0.915 2.671-2.27 1.456 1.298 2.613 2.259 2.625 2.269l0.311 0.258 0.312-0.257c0.306-0.252 7.498-6.2 8.729-8.798l0.034-0.072c0.297-0.625 0.704-1.481 0.704-2.783 0-1.13-0.331-2.199-0.957-3.113 0.421-0.903 0.957-2.204 0.957-4.073zM30.11 22.453l-0.035 0.073c-1.002 2.114-6.745 7.017-8.155 8.201-0.483-0.407-1.476-1.254-2.606-2.271-1.711-1.539-3.084-2.88-4.054-3.953-0.269-0.298-0.508-0.575-0.713-0.831-0.082-0.102-0.159-0.201-0.231-0.295-0.251-0.332-0.438-0.62-0.556-0.859l-0.020-0.041c-0.286-0.578-0.61-1.234-0.61-2.388 0-2.507 1.931-4.471 4.396-4.471 1.667 0 3.184 0.918 3.96 2.394l0.433 0.824 0.433-0.824c0.776-1.477 2.294-2.394 3.96-2.394 1.372 0 2.639 0.623 3.474 1.709 0.61 0.792 0.932 1.747 0.932 2.762 0 1.081-0.323 1.762-0.609 2.363zM30.042 16.145c-0.002-0.002-0.004-0.004-0.006-0.006-0.054-0.052-0.109-0.103-0.165-0.153-0.010-0.009-0.019-0.017-0.029-0.026-0.056-0.049-0.113-0.097-0.171-0.144-0.011-0.009-0.023-0.018-0.034-0.027-0.059-0.047-0.12-0.093-0.181-0.138-0.005-0.004-0.011-0.008-0.016-0.011-0.059-0.043-0.12-0.084-0.18-0.124-0.009-0.006-0.019-0.013-0.028-0.019-0.062-0.041-0.126-0.080-0.19-0.117-0.013-0.007-0.025-0.015-0.038-0.022-0.065-0.038-0.13-0.074-0.196-0.109-0.008-0.004-0.016-0.008-0.024-0.012-0.064-0.033-0.129-0.065-0.195-0.096-0.008-0.004-0.017-0.008-0.025-0.012-0.068-0.031-0.137-0.061-0.206-0.089-0.014-0.006-0.027-0.011-0.041-0.017-0.069-0.028-0.139-0.054-0.209-0.079-0.010-0.004-0.020-0.007-0.031-0.011-0.069-0.024-0.138-0.046-0.208-0.067-0.007-0.002-0.014-0.004-0.021-0.006-0.072-0.021-0.146-0.041-0.219-0.059-0.014-0.003-0.028-0.007-0.043-0.011-0.073-0.018-0.146-0.034-0.219-0.048-0.012-0.002-0.025-0.005-0.037-0.007-0.074-0.014-0.148-0.027-0.222-0.038-0.004-0.001-0.008-0.001-0.012-0.002-0.076-0.011-0.153-0.020-0.231-0.028-0.015-0.001-0.029-0.003-0.044-0.004-0.075-0.007-0.151-0.012-0.227-0.016-0.014-0.001-0.028-0.001-0.042-0.002-0.079-0.003-0.159-0.006-0.238-0.006-1.756 0-3.376 0.835-4.394 2.224-1.018-1.389-2.638-2.224-4.394-2.224-0.272 0-0.541 0.020-0.805 0.059-1.144 0.17-2.193 0.702-3.014 1.541-1.003 1.024-1.555 2.391-1.555 3.85 0 1.382 0.394 2.18 0.711 2.821l0.020 0.041c0.019 0.038 0.039 0.077 0.060 0.116 0.007 0.013 0.014 0.026 0.021 0.039 0.015 0.027 0.030 0.054 0.046 0.082 0.009 0.016 0.019 0.032 0.029 0.049 0.015 0.026 0.030 0.051 0.046 0.077 0.011 0.018 0.023 0.036 0.034 0.055 0.016 0.025 0.031 0.050 0.048 0.076 0.013 0.019 0.026 0.039 0.039 0.059 0.017 0.025 0.033 0.050 0.051 0.076 0.014 0.020 0.029 0.041 0.043 0.062 0.018 0.026 0.036 0.051 0.054 0.078 0.015 0.022 0.031 0.043 0.047 0.065 0.019 0.026 0.038 0.052 0.057 0.079 0.017 0.023 0.034 0.046 0.051 0.069 0.020 0.027 0.040 0.054 0.061 0.081 0.018 0.024 0.036 0.048 0.055 0.071 0.021 0.027 0.042 0.055 0.064 0.083 0.019 0.025 0.039 0.050 0.059 0.075 0.022 0.028 0.045 0.056 0.068 0.084 0.021 0.026 0.042 0.051 0.063 0.077 0.024 0.029 0.047 0.057 0.071 0.087 0.022 0.026 0.044 0.053 0.066 0.080 0.025 0.029 0.050 0.059 0.075 0.089 0.023 0.027 0.046 0.054 0.070 0.082 0.026 0.030 0.052 0.061 0.079 0.091 0.024 0.028 0.049 0.056 0.074 0.085 0.027 0.031 0.055 0.062 0.082 0.093 0.026 0.029 0.051 0.058 0.077 0.087 0.028 0.032 0.057 0.064 0.086 0.096 0.027 0.030 0.054 0.059 0.081 0.089 0.029 0.032 0.060 0.065 0.090 0.098 0.028 0.031 0.056 0.061 0.085 0.092 0.031 0.033 0.062 0.066 0.093 0.099 0.030 0.032 0.059 0.063 0.089 0.095 0.032 0.033 0.064 0.067 0.096 0.101 0.031 0.032 0.062 0.065 0.093 0.098 0.033 0.034 0.067 0.069 0.1 0.104 0.032 0.033 0.064 0.066 0.096 0.1 0.035 0.036 0.070 0.072 0.105 0.108 0.033 0.033 0.065 0.066 0.098 0.1 0.037 0.038 0.075 0.076 0.113 0.114 0.033 0.033 0.065 0.065 0.098 0.098 0.040 0.040 0.080 0.080 0.12 0.12 0.064 0.064 0.13 0.129 0.196 0.194 0.041 0.040 0.082 0.080 0.123 0.121 0.037 0.036 0.076 0.074 0.113 0.11 0.040 0.039 0.079 0.077 0.119 0.116s0.080 0.077 0.121 0.116c0.040 0.038 0.079 0.076 0.119 0.114 0.041 0.040 0.084 0.080 0.125 0.12 0.041 0.039 0.081 0.077 0.122 0.116s0.085 0.080 0.127 0.12c0.042 0.040 0.085 0.080 0.127 0.12s0.088 0.082 0.132 0.123c0.043 0.040 0.085 0.080 0.129 0.12 0.046 0.043 0.092 0.086 0.139 0.129 0.043 0.040 0.086 0.080 0.13 0.12 0.047 0.043 0.094 0.087 0.142 0.131 0.045 0.041 0.089 0.082 0.135 0.123 0.048 0.044 0.096 0.087 0.144 0.131 0.029 0.026 0.057 0.052 0.086 0.079-1.020 0.884-1.83 1.565-2.248 1.915-1.895-1.593-11.833-10.049-13.639-13.708l-0.055-0.111c-0.481-0.971-1.026-2.072-1.026-4.003 0-4.28 3.306-7.632 7.526-7.632 2.845 0 5.435 1.566 6.76 4.087l0.433 0.824 0.433-0.824c1.325-2.521 3.915-4.087 6.76-4.087 4.22 0 7.526 3.352 7.526 7.632-0 1.407-0.334 2.44-0.678 3.241z"></path>
<path fill="#fff" d="M9.245 0h-0.979v3.047h0.979v-3.047z"></path>
<path fill="#fff" d="M12.984 0.889l-1.279 2.766 0.888 0.411 1.279-2.766-0.888-0.411z"></path>
<path fill="#fff" d="M4.527 0.888l-0.888 0.411 1.279 2.766 0.888-0.411-1.279-2.766z"></path>
<path fill="#fff" d="M3.369 13.439c0-0.046 0-0.092 0.001-0.138l-0.979-0.020c-0.001 0.053-0.002 0.105-0.002 0.158 0 0.656 0.067 1.254 0.204 1.828l0.952-0.228c-0.119-0.498-0.177-1.022-0.177-1.601z"></path>
<path fill="#fff" d="M4.696 8.059c-1.172 1.102-1.958 2.592-2.212 4.195l0.967 0.153c0.22-1.39 0.901-2.681 1.916-3.635l-0.67-0.713z"></path>
<path fill="#fff" d="M16.278 16.677c-1.346 0.624-2.226 1.949-2.297 3.458l0.978 0.046c0.054-1.143 0.717-2.146 1.731-2.616l-0.412-0.888z"></path>
</svg>
