<!-- Generated by IcoMoon.io -->
<svg version="1.1" xmlns="http://www.w3.org/2000/svg" width="30" height="32" viewBox="0 0 30 32">
<title>lock</title>
<path fill="#fff" d="M28.535 29.265v-13.511c0.269-0.007 0.524-0.119 0.712-0.312s0.293-0.451 0.293-0.72v-3.504c0-0.102-0.041-0.2-0.113-0.272s-0.17-0.113-0.272-0.113h-1.452c-0.102 0-0.2 0.041-0.272 0.113s-0.113 0.17-0.113 0.272v0.783h-0.784v-0.783c0-0.102-0.041-0.2-0.113-0.272s-0.17-0.113-0.272-0.113h-1.452c-0.102 0-0.2 0.041-0.272 0.113s-0.113 0.17-0.113 0.272v0.783h-0.784v-0.783c0-0.102-0.041-0.2-0.113-0.272s-0.17-0.113-0.272-0.113h-1.452c-0.102 0-0.2 0.041-0.272 0.113s-0.113 0.17-0.113 0.272v3.504c0 0.269 0.106 0.527 0.293 0.72s0.443 0.305 0.712 0.312v2.217h-1.593c-0.102 0-0.2 0.041-0.272 0.113s-0.113 0.17-0.113 0.272v0.783h-0.337v-8.218h0.652c0.075-0 0.148-0.022 0.211-0.063s0.112-0.099 0.142-0.168c0.030-0.069 0.039-0.144 0.027-0.218s-0.046-0.142-0.097-0.197l-5.37-5.798v-0.928l2.657-1.156c0.068-0.030 0.126-0.078 0.167-0.14s0.063-0.134 0.064-0.208-0.019-0.147-0.058-0.209c-0.039-0.063-0.096-0.113-0.163-0.144l-2.713-1.274c-0.041-0.075-0.105-0.135-0.184-0.169s-0.166-0.042-0.249-0.021-0.156 0.069-0.209 0.137c-0.053 0.068-0.081 0.151-0.081 0.236v3.876l-5.371 5.798c-0.051 0.055-0.085 0.123-0.097 0.197s-0.003 0.15 0.027 0.218 0.079 0.127 0.142 0.168c0.063 0.041 0.136 0.063 0.211 0.063h0.652v8.218h-0.337v-0.783c0-0.102-0.041-0.2-0.113-0.272s-0.17-0.113-0.272-0.113h-1.593v-2.217c0.269-0.007 0.524-0.119 0.712-0.312s0.293-0.451 0.293-0.72v-3.504c0-0.102-0.041-0.2-0.113-0.272s-0.17-0.113-0.272-0.113h-1.452c-0.102 0-0.2 0.041-0.272 0.113s-0.113 0.17-0.113 0.272v0.783h-0.784v-0.783c0-0.102-0.041-0.2-0.113-0.272s-0.17-0.113-0.272-0.113h-1.452c-0.102 0-0.2 0.041-0.272 0.113s-0.113 0.17-0.113 0.272v0.783h-0.784v-0.783c0-0.102-0.041-0.2-0.113-0.272s-0.17-0.113-0.272-0.113h-1.452c-0.102 0-0.2 0.041-0.272 0.113s-0.113 0.17-0.113 0.272v3.504c0 0.269 0.106 0.527 0.293 0.72s0.443 0.305 0.712 0.312v13.511c-0.48 0.020-0.933 0.225-1.266 0.571s-0.518 0.808-0.519 1.288v0.276c0 0.102 0.041 0.2 0.113 0.272s0.17 0.113 0.272 0.113h29.51c0.102 0 0.2-0.041 0.272-0.113s0.113-0.17 0.113-0.272v-0.276c-0.001-0.48-0.187-0.941-0.519-1.288s-0.786-0.551-1.266-0.571zM15.564 1.289l1.57 0.737-1.57 0.684v-1.421zM22.078 14.722v-3.119h0.683v0.783c0 0.102 0.041 0.2 0.113 0.272s0.17 0.113 0.272 0.113h1.553c0.102 0 0.2-0.041 0.272-0.113s0.113-0.17 0.113-0.272v-0.783h0.683v0.783c0 0.102 0.041 0.2 0.113 0.272s0.17 0.113 0.272 0.113h1.553c0.102 0 0.2-0.041 0.272-0.113s0.113-0.17 0.113-0.272v-0.783h0.683v3.119c-0 0.070-0.028 0.137-0.077 0.187s-0.117 0.077-0.187 0.077h-6.165c-0.070-0-0.137-0.028-0.187-0.077s-0.077-0.117-0.077-0.187zM15.18 5.194l4.593 4.958h-6.195c-0.102 0-0.2 0.040-0.272 0.113s-0.113 0.17-0.113 0.272c0 0.102 0.041 0.2 0.113 0.272s0.17 0.113 0.272 0.113h5.654v8.218h-0.265v-0.783c0-0.102-0.041-0.2-0.113-0.272s-0.17-0.113-0.272-0.113h-2.396c-0.102 0-0.2 0.041-0.272 0.113s-0.113 0.17-0.113 0.272v0.783h-1.242v-0.783c0-0.102-0.041-0.2-0.113-0.272s-0.17-0.113-0.272-0.113h-2.396c-0.102 0-0.2 0.041-0.272 0.113s-0.113 0.17-0.113 0.272v0.783h-0.265v-8.218h1.039c0.102 0 0.2-0.041 0.272-0.113s0.113-0.17 0.113-0.272c0-0.102-0.040-0.2-0.113-0.272s-0.17-0.113-0.272-0.113h-1.58l4.593-4.958zM9.253 18.74v0.783c0 0.102 0.041 0.2 0.113 0.272s0.17 0.113 0.272 0.113h2.14c0.102 0 0.2-0.041 0.272-0.113s0.113-0.17 0.113-0.272v-0.783h1.627v0.783c0 0.102 0.041 0.2 0.113 0.272s0.17 0.113 0.272 0.113h2.012c0.102 0 0.2-0.041 0.272-0.113s0.113-0.17 0.113-0.272v-0.783h1.627v0.783c0 0.102 0.041 0.2 0.113 0.272s0.17 0.113 0.272 0.113h2.14c0.102 0 0.2-0.041 0.272-0.113s0.113-0.17 0.113-0.272v-0.783h1.5v2.016h-0.729c-0.102 0-0.2 0.041-0.272 0.113s-0.113 0.17-0.113 0.272c0 0.102 0.041 0.2 0.113 0.272s0.17 0.113 0.272 0.113h0.729v3.163c0 0.102 0.041 0.2 0.113 0.272s0.17 0.113 0.272 0.113c0.102 0 0.2-0.041 0.272-0.113s0.113-0.17 0.113-0.272v-1.671h0.989c0.102 0 0.2-0.041 0.272-0.113s0.113-0.17 0.113-0.272-0.041-0.2-0.113-0.272c-0.072-0.072-0.17-0.113-0.272-0.113h-0.989v-3.893c-0-0.086-0.029-0.169-0.082-0.237s-0.127-0.116-0.21-0.136v-2.228h4.681v0.653h-1.017c-0.102 0-0.2 0.041-0.272 0.113s-0.113 0.17-0.113 0.272c0 0.102 0.041 0.2 0.113 0.272s0.17 0.113 0.272 0.113h1.017v11.042h-0.956c-0.102 0-0.2 0.041-0.272 0.113s-0.113 0.17-0.113 0.272c0 0.102 0.041 0.2 0.113 0.272s0.17 0.113 0.272 0.113h0.956v0.274h-4.39v-3.231c0-0.102-0.041-0.2-0.113-0.272s-0.17-0.113-0.272-0.113c-0.102 0-0.2 0.041-0.272 0.113s-0.113 0.17-0.113 0.272v1.408h-0.794c-0.102 0-0.2 0.041-0.272 0.113s-0.113 0.17-0.113 0.272 0.041 0.2 0.113 0.272c0.072 0.072 0.17 0.113 0.272 0.113h0.794v1.053h-4.869v-1.843h1.635c0.102 0 0.2-0.041 0.272-0.113s0.113-0.17 0.113-0.272c0-0.102-0.041-0.2-0.113-0.272s-0.17-0.113-0.272-0.113h-1.638c-0.013-0.368-0.118-0.726-0.305-1.043s-0.45-0.582-0.765-0.771l-1.288-0.769c-0.060-0.036-0.128-0.054-0.197-0.054s-0.138 0.019-0.197 0.054l-1.288 0.769c-0.326 0.196-0.597 0.473-0.785 0.804s-0.287 0.705-0.288 1.086v1.233h-1.047c-0.102 0-0.2 0.041-0.272 0.113s-0.113 0.17-0.113 0.272c0 0.102 0.041 0.2 0.113 0.272s0.17 0.113 0.272 0.113h1.047v0.534h-4.869v-2.351h0.729c0.102 0 0.2-0.041 0.272-0.113s0.113-0.17 0.113-0.272c0-0.102-0.041-0.2-0.113-0.272s-0.17-0.113-0.272-0.113h-0.729v-7.402h1.5zM16.969 26.727v2.536h-3.578v-2.536c0.001-0.248 0.065-0.491 0.187-0.707s0.298-0.396 0.511-0.523l1.091-0.652 1.091 0.652c0.212 0.128 0.388 0.308 0.51 0.523s0.187 0.459 0.187 0.707zM1.588 14.722v-3.119h0.683v0.783c0 0.102 0.041 0.2 0.113 0.272s0.17 0.113 0.272 0.113h1.553c0.102 0 0.2-0.041 0.272-0.113s0.113-0.17 0.113-0.272v-0.783h0.683v0.783c0 0.102 0.040 0.2 0.113 0.272s0.17 0.113 0.272 0.113h1.553c0.102 0 0.2-0.041 0.272-0.113s0.113-0.17 0.113-0.272v-0.783h0.683v3.119c-0 0.070-0.028 0.137-0.077 0.187s-0.117 0.077-0.187 0.077h-6.165c-0.070-0-0.137-0.028-0.187-0.077s-0.077-0.117-0.077-0.187zM6.254 23.083h0.73v3.355c-0.015 0.059-0.015 0.12 0 0.179v1.343h-0.989c-0.102 0-0.2 0.041-0.272 0.113s-0.113 0.17-0.113 0.272c0 0.102 0.041 0.2 0.113 0.272s0.17 0.113 0.272 0.113h0.989v0.534h-4.39v-9.1h1.015c0.102 0 0.2-0.041 0.272-0.113s0.113-0.17 0.113-0.272c0-0.102-0.041-0.2-0.113-0.272s-0.17-0.113-0.272-0.113h-1.015v-3.638h4.681v2.228c-0.083 0.021-0.157 0.069-0.21 0.136s-0.082 0.151-0.082 0.237v3.958h-0.73c-0.102 0-0.2 0.041-0.272 0.113s-0.113 0.17-0.113 0.272c0 0.102 0.041 0.2 0.113 0.272s0.17 0.113 0.272 0.113zM0.814 31.015c0.027-0.269 0.154-0.519 0.354-0.7s0.462-0.282 0.732-0.282h26.558c0.271 0 0.532 0.101 0.732 0.282s0.327 0.431 0.354 0.7h-28.731z"></path>
</svg>
