<!-- Generated by IcoMoon.io -->
<svg version="1.1" xmlns="http://www.w3.org/2000/svg" width="32" height="32" viewBox="0 0 32 32">
<title>rocket</title>
<path fill="#fff" d="M15.125 22.527l-5.649-5.952c-0.074-0.078-0.114-0.183-0.112-0.291s0.048-0.21 0.127-0.285l9.242-8.771c0.011-0.010 0.021-0.020 0.032-0.030 1.84-1.402 4.254-1.764 7.379-1.106 0.081 0.017 0.154 0.058 0.211 0.118s0.094 0.136 0.107 0.217c0.497 3.157 0.007 5.548-1.492 7.312-0.009 0.011-0.019 0.022-0.030 0.031l-9.241 8.77c-0.078 0.074-0.182 0.114-0.29 0.112s-0.21-0.048-0.284-0.125zM10.346 16.309l5.089 5.362 8.931-8.475c1.302-1.54 1.729-3.568 1.336-6.361-2.769-0.536-4.816-0.216-6.424 1l-8.931 8.474z"></path>
<path fill="#fff" d="M7.422 15.632c-0.039-0.041-0.069-0.089-0.088-0.142s-0.027-0.109-0.023-0.165l0.055-0.81c0.050-0.826 0.337-1.619 0.826-2.286s1.161-1.178 1.933-1.473l0.050-0.019c1.655-0.61 3.481-0.559 5.099 0.144 0.058 0.029 0.109 0.072 0.147 0.125s0.063 0.114 0.073 0.179c0.010 0.065 0.003 0.131-0.018 0.193s-0.057 0.118-0.105 0.163l-4.153 3.942c-0.050 0.047-0.111 0.081-0.178 0.099s-0.137 0.017-0.204-0c-0.986-0.226-2.015-0.174-2.972 0.152-0.064 0.024-0.133 0.032-0.2 0.023s-0.132-0.036-0.187-0.076c-0.020-0.014-0.038-0.030-0.055-0.047zM10.267 11.137l0.142 0.381c-0.626 0.24-1.169 0.656-1.565 1.197s-0.627 1.185-0.666 1.854l-0.015 0.228c0.87-0.211 1.776-0.231 2.655-0.057l3.521-3.342c-1.273-0.381-2.635-0.345-3.886 0.103l-0.186-0.364z"></path>
<path fill="#fff" d="M15.961 24.629c-0.017-0.017-0.032-0.036-0.045-0.056-0.038-0.057-0.061-0.122-0.066-0.191s0.006-0.137 0.033-0.199c0.376-0.939 0.482-1.964 0.307-2.96-0.014-0.068-0.010-0.138 0.010-0.204s0.058-0.125 0.108-0.173l4.154-3.942c0.047-0.045 0.105-0.078 0.168-0.096s0.129-0.021 0.193-0.008c0.064 0.013 0.124 0.041 0.175 0.082s0.091 0.094 0.117 0.154c0.617 1.652 0.573 3.479-0.123 5.1l-0.021 0.049c-0.335 0.756-0.881 1.4-1.573 1.854s-1.499 0.699-2.326 0.706l-0.812 0.012c-0.056 0.001-0.112-0.010-0.164-0.032s-0.098-0.054-0.137-0.095zM17.029 21.285c0.127 0.887 0.060 1.79-0.196 2.648l0.228-0.004c0.67-0.004 1.325-0.201 1.886-0.568s1.004-0.887 1.277-1.499l0.392 0.117-0.375-0.158c0.513-1.226 0.62-2.584 0.306-3.875l-3.518 3.339z"></path>
<path fill="#fff" d="M20.411 11.856c-0.292-0.307-0.486-0.695-0.558-1.113s-0.018-0.848 0.154-1.235c0.172-0.387 0.456-0.715 0.814-0.941s0.776-0.341 1.2-0.33c0.424 0.011 0.835 0.148 1.181 0.392s0.612 0.587 0.764 0.982 0.183 0.828 0.090 1.241c-0.094 0.414-0.308 0.79-0.615 1.082-0.413 0.391-0.963 0.602-1.531 0.587s-1.107-0.254-1.499-0.666zM22.93 9.465c-0.181-0.191-0.415-0.324-0.671-0.382s-0.525-0.039-0.77 0.055c-0.246 0.094-0.458 0.259-0.609 0.474s-0.236 0.47-0.243 0.733 0.064 0.522 0.205 0.744c0.14 0.222 0.344 0.398 0.584 0.505s0.507 0.14 0.766 0.096 0.499-0.165 0.69-0.346c0.255-0.243 0.404-0.577 0.413-0.929s-0.122-0.694-0.364-0.95z"></path>
<path fill="#fff" d="M13.614 23.379l-5.069-5.341c-0.074-0.078-0.114-0.183-0.112-0.291s0.048-0.21 0.127-0.285l1.22-1.158c0.078-0.074 0.183-0.114 0.291-0.112s0.21 0.048 0.285 0.127l5.069 5.341c0.074 0.078 0.114 0.183 0.112 0.291s-0.048 0.21-0.127 0.285l-1.22 1.158c-0.078 0.074-0.183 0.114-0.291 0.112s-0.21-0.048-0.285-0.127zM9.416 17.773l4.509 4.751 0.63-0.598-4.509-4.751-0.63 0.598z"></path>
<path fill="#fff" d="M5.711 25.844c-0.177-0.204-0.288-0.456-0.32-0.724s0.016-0.54 0.139-0.78c0.333-0.812 0.559-1.664 0.673-2.535 0.24-1.486 0.43-2.661 3.041-3.82 0.077-0.034 0.162-0.044 0.245-0.027s0.158 0.058 0.216 0.119l3.929 4.14c0.058 0.061 0.096 0.138 0.108 0.222s-0.002 0.168-0.040 0.243c-0.322 0.687-0.756 1.315-1.286 1.857-0.833 0.791-1.686 0.891-2.674 1.007-0.867 0.076-1.721 0.262-2.542 0.554-0.245 0.111-0.517 0.146-0.782 0.1s-0.51-0.169-0.704-0.354l-0.002-0.002zM9.313 18.848c-1.959 0.927-2.086 1.71-2.308 3.088-0.124 0.935-0.368 1.85-0.726 2.723-0.111 0.261-0.102 0.495 0.022 0.626 0.123 0.13 0.354 0.149 0.616 0.052 0.88-0.314 1.797-0.515 2.728-0.599 0.946-0.112 1.572-0.185 2.209-0.789 0.399-0.407 0.732-0.873 0.988-1.383l-3.53-3.719z"></path>
<path fill="#fff" d="M8.493 23.184c-0.116-0.133-0.191-0.297-0.214-0.472s0.006-0.353 0.083-0.511c0.164-0.4 0.275-0.819 0.331-1.247 0.122-0.749 0.229-1.395 1.451-1.999 0.078-0.038 0.166-0.050 0.251-0.035s0.163 0.058 0.223 0.121l2.101 2.214c0.060 0.063 0.098 0.143 0.109 0.229s-0.006 0.173-0.048 0.249c-0.154 0.291-0.35 0.558-0.583 0.791-0.409 0.361-0.935 0.562-1.48 0.569-0.427 0.038-0.847 0.129-1.25 0.272-0.162 0.069-0.34 0.089-0.513 0.057s-0.333-0.114-0.459-0.237l-0.001-0.001zM10.24 19.825c-0.598 0.353-0.648 0.662-0.745 1.259-0.066 0.492-0.195 0.974-0.384 1.434-0.018 0.034-0.025 0.073-0.023 0.111 0.001-0.009 0.037-0.007 0.097-0.029 0.464-0.166 0.948-0.273 1.439-0.317 0.369 0.009 0.729-0.115 1.014-0.35 0.106-0.104 0.199-0.219 0.279-0.344l-1.676-1.764z"></path>
<path fill="#fff" d="M13.945 17.993c-0.074-0.078-0.114-0.183-0.112-0.291s0.048-0.21 0.127-0.285l1.731-1.642c0.078-0.074 0.183-0.114 0.291-0.112s0.21 0.048 0.285 0.127c0.074 0.078 0.114 0.183 0.112 0.291s-0.048 0.21-0.127 0.285l-1.731 1.642c-0.078 0.074-0.183 0.114-0.291 0.112s-0.21-0.048-0.285-0.127z"></path>
<path fill="#fff" d="M12.635 16.598c-0.074-0.078-0.114-0.183-0.112-0.291s0.048-0.21 0.127-0.285l0.761-0.722c0.078-0.074 0.183-0.114 0.291-0.112s0.21 0.048 0.285 0.127c0.074 0.078 0.114 0.183 0.112 0.291s-0.048 0.21-0.127 0.285l-0.761 0.722c-0.078 0.074-0.183 0.114-0.291 0.112s-0.21-0.048-0.285-0.127z"></path>
<path fill="#fff" d="M15.265 19.37c-0.074-0.078-0.114-0.183-0.112-0.291s0.048-0.21 0.127-0.285l0.761-0.722c0.078-0.074 0.183-0.114 0.291-0.112s0.21 0.048 0.285 0.127c0.074 0.078 0.114 0.183 0.112 0.291s-0.048 0.21-0.127 0.285l-0.761 0.722c-0.078 0.074-0.183 0.114-0.291 0.112s-0.21-0.048-0.285-0.127z"></path>
</svg>
