<!-- Generated by IcoMoon.io -->
<svg version="1.1" xmlns="http://www.w3.org/2000/svg" width="30" height="32" viewBox="0 0 30 32">
<title>signin</title>
<path fill="#fff" d="M21.096 20.303c0.928-0.488 1.99-0.765 3.122-0.765h0.004c0.115 0 0.169-0.135 0.084-0.21-1.177-1.032-2.52-1.866-3.977-2.468-0.015-0.008-0.031-0.011-0.046-0.019 2.381-1.691 3.931-4.44 3.931-7.541 0-5.138-4.249-9.3-9.491-9.3s-9.488 4.162-9.488 9.3c0 3.101 1.549 5.85 3.935 7.541-0.015 0.008-0.031 0.011-0.046 0.019-1.714 0.709-3.252 1.725-4.575 3.023-1.315 1.284-2.363 2.806-3.083 4.481-0.709 1.64-1.092 3.398-1.127 5.179-0.001 0.040 0.006 0.080 0.021 0.117s0.037 0.071 0.066 0.1 0.063 0.051 0.1 0.067c0.038 0.016 0.078 0.024 0.119 0.024h2.297c0.165 0 0.303-0.131 0.307-0.292 0.077-2.895 1.262-5.606 3.359-7.661 2.167-2.126 5.051-3.296 8.118-3.296 2.174 0 4.261 0.589 6.059 1.691 0.046 0.028 0.099 0.044 0.154 0.046s0.109-0.010 0.157-0.035zM14.726 15.75c-1.756 0-3.409-0.671-4.656-1.89-0.613-0.598-1.099-1.309-1.43-2.092s-0.501-1.622-0.499-2.468c0-1.721 0.686-3.341 1.929-4.56s2.895-1.89 4.656-1.89c1.76 0 3.409 0.671 4.656 1.89 0.613 0.598 1.099 1.309 1.43 2.092s0.5 1.622 0.499 2.468c0 1.721-0.687 3.341-1.929 4.56-1.246 1.219-2.899 1.89-4.656 1.89zM28.831 24.675h-3.221v-3.15c0-0.165-0.138-0.3-0.307-0.3h-2.148c-0.169 0-0.307 0.135-0.307 0.3v3.15h-3.221c-0.169 0-0.307 0.135-0.307 0.3v2.1c0 0.165 0.138 0.3 0.307 0.3h3.221v3.15c0 0.165 0.138 0.3 0.307 0.3h2.148c0.169 0 0.307-0.135 0.307-0.3v-3.15h3.221c0.169 0 0.307-0.135 0.307-0.3v-2.1c0-0.165-0.138-0.3-0.307-0.3z"></path>
</svg>
