<!-- Generated by IcoMoon.io -->
<svg version="1.1" xmlns="http://www.w3.org/2000/svg" width="32" height="32" viewBox="0 0 32 32">
<title>smile</title>
<path fill="#fff" d="M22.725 19.656c-0.287-0.257-0.727-0.232-0.982 0.054-1.451 1.622-3.544 2.551-5.743 2.551s-4.291-0.929-5.743-2.551c-0.257-0.286-0.696-0.311-0.982-0.054s-0.31 0.696-0.054 0.982c1.715 1.916 4.186 3.014 6.779 3.014s5.065-1.099 6.779-3.014c0.256-0.287 0.232-0.726-0.054-0.982z"></path>
<path fill="#fff" d="M16 0c-8.822 0-16 7.178-16 16s7.178 16 16 16c8.822 0 16-7.178 16-16s-7.178-16-16-16zM16 30.609c-8.056 0-14.609-6.553-14.609-14.609s6.553-14.609 14.609-14.609c8.056 0 14.609 6.553 14.609 14.609s-6.553 14.609-14.609 14.609z"></path>
<path fill="#fff" d="M21.565 11.13c-1.918 0-3.478 1.56-3.478 3.478 0 0.384 0.312 0.696 0.696 0.696s0.696-0.312 0.696-0.696c0-1.151 0.936-2.087 2.087-2.087s2.087 0.936 2.087 2.087c0 0.384 0.312 0.696 0.696 0.696s0.696-0.312 0.696-0.696c0-1.918-1.56-3.478-3.478-3.478z"></path>
<path fill="#fff" d="M12.522 14.609c0 0.384 0.312 0.696 0.696 0.696s0.696-0.312 0.696-0.696c0-1.918-1.56-3.478-3.478-3.478s-3.478 1.56-3.478 3.478c0 0.384 0.312 0.696 0.696 0.696s0.696-0.312 0.696-0.696c0-1.151 0.936-2.087 2.087-2.087s2.087 0.936 2.087 2.087z"></path>
</svg>
