<svg aria-hidden="true" style="position: absolute; width: 0; height: 0; overflow: hidden;" version="1.1" xmlns="http://www.w3.org/2000/svg" xmlns:xlink="http://www.w3.org/1999/xlink">
<defs>
<symbol id="icon-smile" viewBox="0 0 32 32">
<path fill="#fff" style="fill: var(--color1, #fff)" d="M22.725 19.656c-0.287-0.257-0.727-0.232-0.982 0.054-1.451 1.622-3.544 2.551-5.743 2.551s-4.291-0.929-5.743-2.551c-0.257-0.286-0.696-0.311-0.982-0.054s-0.31 0.696-0.054 0.982c1.715 1.916 4.186 3.014 6.779 3.014s5.065-1.099 6.779-3.014c0.256-0.287 0.232-0.726-0.054-0.982z"></path>
<path fill="#fff" style="fill: var(--color1, #fff)" d="M16 0c-8.822 0-16 7.178-16 16s7.178 16 16 16c8.822 0 16-7.178 16-16s-7.178-16-16-16zM16 30.609c-8.056 0-14.609-6.553-14.609-14.609s6.553-14.609 14.609-14.609c8.056 0 14.609 6.553 14.609 14.609s-6.553 14.609-14.609 14.609z"></path>
<path fill="#fff" style="fill: var(--color1, #fff)" d="M21.565 11.13c-1.918 0-3.478 1.56-3.478 3.478 0 0.384 0.312 0.696 0.696 0.696s0.696-0.312 0.696-0.696c0-1.151 0.936-2.087 2.087-2.087s2.087 0.936 2.087 2.087c0 0.384 0.312 0.696 0.696 0.696s0.696-0.312 0.696-0.696c0-1.918-1.56-3.478-3.478-3.478z"></path>
<path fill="#fff" style="fill: var(--color1, #fff)" d="M12.522 14.609c0 0.384 0.312 0.696 0.696 0.696s0.696-0.312 0.696-0.696c0-1.918-1.56-3.478-3.478-3.478s-3.478 1.56-3.478 3.478c0 0.384 0.312 0.696 0.696 0.696s0.696-0.312 0.696-0.696c0-1.151 0.936-2.087 2.087-2.087s2.087 0.936 2.087 2.087z"></path>
</symbol>
<symbol id="icon-ghost-1" viewBox="0 0 32 32">
<path fill="#fff" style="fill: var(--color1, #fff)" d="M31.167 10.043c-0.095-0.225-0.235-0.428-0.412-0.596s-0.388-0.298-0.618-0.38-0.475-0.116-0.718-0.099c-0.244 0.017-0.481 0.084-0.698 0.198-0.823 0.431-1.614 0.922-2.366 1.467 0-0.092 0-0.185 0-0.277 0-2.746-1.091-5.38-3.033-7.322s-4.575-3.033-7.322-3.033c-2.746 0-5.38 1.091-7.322 3.033s-3.033 4.575-3.033 7.322v0.277c-0.752-0.545-1.543-1.035-2.366-1.467-0.39-0.207-0.843-0.26-1.27-0.15s-0.797 0.377-1.037 0.747-0.333 0.817-0.26 1.252c0.073 0.435 0.306 0.827 0.654 1.099 1.484 1.212 2.798 2.618 3.905 4.181-0.214 1.714-0.52 3.415-0.916 5.095l-1.39 5.656c-0.014 0.058-0.016 0.119-0.006 0.178s0.032 0.116 0.065 0.166c0.033 0.050 0.076 0.093 0.126 0.126s0.106 0.055 0.166 0.066l1.635 0.285c0.29 0.051 0.566 0.163 0.809 0.329s0.447 0.383 0.6 0.636l0.199 0.33c0.29 0.479 0.71 0.865 1.211 1.114s1.064 0.348 1.62 0.288l0.385-0.042c0.292-0.032 0.587-0.001 0.866 0.091s0.535 0.242 0.751 0.44l0.257 0.237c0.42 0.387 0.945 0.643 1.508 0.736s1.142 0.019 1.665-0.212l0.343-0.152c0.263-0.116 0.546-0.175 0.833-0.175s0.571 0.060 0.834 0.175l0.343 0.152c0.522 0.232 1.101 0.306 1.665 0.213s1.088-0.349 1.508-0.736l0.257-0.237c0.216-0.198 0.472-0.349 0.751-0.44s0.574-0.123 0.866-0.091l0.386 0.042c0.556 0.060 1.119-0.040 1.62-0.288s0.922-0.635 1.211-1.114l0.2-0.33c0.152-0.252 0.356-0.469 0.599-0.636s0.519-0.279 0.809-0.329l1.635-0.285c0.059-0.010 0.115-0.033 0.166-0.066s0.093-0.076 0.126-0.126c0.033-0.050 0.055-0.107 0.065-0.166s0.008-0.12-0.006-0.178l-1.389-5.653c-0.397-1.682-0.704-3.385-0.918-5.1 1.108-1.563 2.422-2.969 3.906-4.181 0.304-0.238 0.521-0.57 0.617-0.944s0.067-0.77-0.084-1.125zM30.096 11.422c-1.602 1.306-3.012 2.83-4.19 4.528-0.056 0.086-0.080 0.189-0.067 0.29 0.219 1.802 0.538 3.591 0.955 5.358l1.278 5.2-1.175 0.205c-0.414 0.072-0.807 0.232-1.154 0.469s-0.638 0.546-0.854 0.906l-0.2 0.33c-0.203 0.336-0.498 0.607-0.85 0.781s-0.746 0.245-1.137 0.203l-0.386-0.042c-0.416-0.045-0.837-0.001-1.234 0.129s-0.762 0.345-1.070 0.628l-0.257 0.236c-0.295 0.272-0.663 0.451-1.058 0.516s-0.802 0.014-1.168-0.149l-0.343-0.152c-0.374-0.166-0.778-0.251-1.187-0.251s-0.813 0.085-1.188 0.251l-0.343 0.152c-0.367 0.162-0.773 0.214-1.168 0.149s-0.763-0.245-1.058-0.516l-0.257-0.236c-0.308-0.283-0.673-0.497-1.070-0.628s-0.818-0.175-1.234-0.129l-0.386 0.042c-0.39 0.042-0.785-0.029-1.136-0.203s-0.647-0.445-0.85-0.781l-0.199-0.33c-0.217-0.36-0.508-0.669-0.854-0.906s-0.74-0.397-1.154-0.469l-1.175-0.205 1.279-5.205c0.417-1.766 0.736-3.553 0.954-5.354 0.012-0.102-0.012-0.205-0.067-0.291-1.177-1.697-2.587-3.221-4.188-4.527-0.173-0.138-0.289-0.335-0.324-0.554s0.012-0.442 0.133-0.628c0.121-0.185 0.307-0.319 0.521-0.375s0.441-0.029 0.637 0.074c1.034 0.538 2.011 1.178 2.916 1.911 0.063 0.052 0.14 0.086 0.221 0.097s0.164-0.001 0.239-0.035c0.075-0.034 0.138-0.088 0.184-0.156s0.071-0.148 0.073-0.23c0.009-0.39 0.017-0.78 0.017-1.17 0-2.514 0.999-4.925 2.776-6.703s4.189-2.776 6.703-2.776c2.514 0 4.925 0.999 6.703 2.776s2.776 4.189 2.776 6.703c0 0.39 0.008 0.78 0.017 1.17 0.002 0.082 0.027 0.162 0.072 0.231s0.109 0.123 0.184 0.157 0.158 0.046 0.239 0.036c0.081-0.011 0.158-0.044 0.221-0.097 0.906-0.733 1.883-1.373 2.916-1.911 0.109-0.057 0.229-0.091 0.351-0.1s0.246 0.009 0.362 0.050c0.116 0.042 0.222 0.107 0.311 0.192s0.16 0.187 0.208 0.301c0.076 0.178 0.092 0.376 0.044 0.564s-0.156 0.355-0.308 0.475z"></path>
<path fill="#fff" style="fill: var(--color1, #fff)" d="M12.766 5.531c-1.008 0-1.828 1.003-1.828 2.235s0.82 2.234 1.828 2.234c1.008 0 1.828-1.003 1.828-2.234s-0.819-2.235-1.828-2.235zM12.766 9.125c-0.517 0-0.953-0.623-0.953-1.359s0.438-1.36 0.953-1.36c0.515 0 0.953 0.623 0.953 1.36s-0.437 1.359-0.953 1.359z"></path>
<path fill="#fff" style="fill: var(--color1, #fff)" d="M19.234 5.531c-1.008 0-1.828 1.003-1.828 2.235s0.82 2.234 1.828 2.234c1.008 0 1.828-1.003 1.828-2.234s-0.82-2.235-1.828-2.235zM19.234 9.125c-0.516 0-0.953-0.623-0.953-1.359s0.437-1.36 0.953-1.36c0.517 0 0.953 0.623 0.953 1.36s-0.438 1.359-0.953 1.359z"></path>
<path fill="#fff" style="fill: var(--color1, #fff)" d="M16 9.719c-1.060 0-1.891 1.27-1.891 2.891s0.831 2.89 1.891 2.89c1.060 0 1.89-1.27 1.89-2.89s-0.83-2.891-1.89-2.891zM16 14.625c-0.48 0-1.016-0.862-1.016-2.015s0.536-2.016 1.016-2.016c0.479 0 1.015 0.862 1.015 2.016s-0.536 2.015-1.015 2.015z"></path>
</symbol>
<symbol id="icon-documentary" viewBox="0 0 32 32">
<path fill="#fff" style="fill: var(--color1, #fff)" d="M20.691 27.666c0.404-0.437 0.577-0.973 0.577-1.566 0-0.594-0.17-1.134-0.577-1.571-0.397-0.426-0.898-0.623-1.475-0.623-0.579 0-1.086 0.191-1.486 0.616-0.409 0.435-0.577 0.973-0.577 1.568 0 0.598 0.168 1.143 0.579 1.582 0.398 0.426 0.9 0.623 1.479 0.623 0.581 0 1.084-0.198 1.481-0.628zM18.562 26.96c-0.193-0.246-0.251-0.559-0.251-0.865 0-0.304 0.064-0.605 0.259-0.844 0.166-0.205 0.377-0.308 0.641-0.308 0.266 0 0.482 0.097 0.646 0.308 0.193 0.244 0.253 0.55 0.253 0.855s-0.064 0.609-0.255 0.851c-0.167 0.21-0.379 0.312-0.645 0.312-0.267 0-0.482-0.097-0.648-0.308z"></path>
<path fill="#fff" style="fill: var(--color1, #fff)" d="M16.534 23.977h-2.079c-0.142 0-0.266 0.055-0.363 0.157-0.096 0.101-0.147 0.223-0.147 0.363 0 0.147 0.051 0.274 0.156 0.377 0.097 0.092 0.214 0.147 0.349 0.147h0.485v2.683c0 0.154 0.057 0.288 0.165 0.396l0.002 0.004 0.003 0.002c0.113 0.101 0.248 0.163 0.4 0.163 0.15 0 0.281-0.060 0.386-0.168 0.106-0.11 0.163-0.242 0.163-0.396v-2.677h0.48c0.14 0 0.264-0.051 0.363-0.152s0.152-0.225 0.152-0.366c0-0.143-0.051-0.271-0.151-0.373s-0.223-0.157-0.365-0.157z"></path>
<path fill="#fff" style="fill: var(--color1, #fff)" d="M12.507 27.107c-0.090 0.069-0.2 0.094-0.313 0.094-0.175 0-0.379-0.062-0.542-0.122-0.115-0.041-0.31-0.111-0.43-0.111-0.142 0-0.266 0.053-0.36 0.159-0.097 0.108-0.14 0.239-0.14 0.382v0.028c0 0.272 0.214 0.444 0.439 0.552 0.305 0.145 0.655 0.189 0.988 0.189 0.432 0 0.852-0.105 1.183-0.398 0.31-0.276 0.455-0.63 0.455-1.046 0-0.439-0.17-0.796-0.546-1.026-0.232-0.149-0.549-0.248-0.813-0.324-0.106-0.028-0.212-0.060-0.315-0.099-0.035-0.012-0.103-0.037-0.135-0.060-0.033-0.028-0.073-0.067-0.073-0.115 0-0.067 0.034-0.113 0.085-0.152 0.074-0.055 0.161-0.076 0.251-0.076 0.087 0 0.198 0.028 0.281 0.052l0.158 0.055c0.097 0.032 0.227 0.073 0.329 0.073 0.144 0 0.266-0.057 0.361-0.163 0.096-0.104 0.144-0.232 0.144-0.374 0-0.246-0.168-0.414-0.372-0.525-0.253-0.136-0.545-0.182-0.829-0.182-0.416 0-0.804 0.11-1.125 0.382-0.301 0.26-0.453 0.595-0.453 0.994 0 0.38 0.14 0.697 0.46 0.906 0.096 0.064 0.213 0.113 0.321 0.156 0.158 0.060 0.321 0.111 0.484 0.159 0.15 0.044 0.328 0.095 0.471 0.161 0.039 0.018 0.092 0.048 0.115 0.087 0.021 0.039 0.030 0.085 0.030 0.129 0 0.092-0.037 0.159-0.112 0.216z"></path>
<path fill="#fff" style="fill: var(--color1, #fff)" d="M26.717 28.101c0.11 0.106 0.241 0.166 0.393 0.166 0.156 0 0.292-0.060 0.398-0.175 0.104-0.112 0.161-0.246 0.161-0.4v-1.433l1.040-1.423c0.074-0.101 0.11-0.216 0.11-0.34 0-0.156-0.060-0.29-0.173-0.396-0.108-0.104-0.241-0.163-0.392-0.163-0.193 0-0.349 0.085-0.457 0.244l-0.687 0.986-0.682-0.986c-0.106-0.161-0.264-0.244-0.457-0.244-0.158 0-0.299 0.055-0.411 0.168-0.106 0.106-0.167 0.239-0.167 0.391 0 0.126 0.048 0.241 0.122 0.34l1.029 1.423v1.433c0 0.159 0.057 0.299 0.172 0.409z"></path>
<path fill="#fff" style="fill: var(--color1, #fff)" d="M25.033 25.343c0-0.389-0.136-0.724-0.428-0.984-0.297-0.265-0.664-0.375-1.061-0.375h-1.027c-0.158 0-0.296 0.055-0.406 0.166-0.113 0.113-0.166 0.255-0.166 0.414v3.128c0 0.157 0.055 0.296 0.166 0.407l0.002 0.004 0.002 0.002c0.115 0.101 0.248 0.163 0.402 0.163 0.151 0 0.285-0.053 0.393-0.161 0.108-0.11 0.161-0.244 0.161-0.398v-0.904l1.001 1.231c0.113 0.14 0.259 0.232 0.441 0.232 0.152 0 0.289-0.055 0.402-0.159l0.003-0.002 0.002-0.003c0.103-0.113 0.163-0.246 0.163-0.4 0-0.14-0.051-0.262-0.145-0.366l-0.754-0.83c0.127-0.035 0.257-0.083 0.358-0.152 0.347-0.239 0.492-0.596 0.492-1.012zM23.806 25.61c-0.073 0.069-0.156 0.105-0.257 0.105h-0.473v-0.681h0.462c0.101 0 0.191 0.026 0.264 0.101l0.002 0.002 0.004 0.002c0.069 0.062 0.106 0.135 0.106 0.228 0 0.097-0.037 0.175-0.108 0.244z"></path>
<path fill="#fff" style="fill: var(--color1, #fff)" d="M7.174 28.108c0.108 0.11 0.242 0.165 0.396 0.165 0.156 0 0.291-0.058 0.399-0.172 0.104-0.11 0.161-0.241 0.161-0.393v-3.201c0-0.157-0.055-0.295-0.165-0.409-0.108-0.108-0.241-0.166-0.395-0.166s-0.287 0.065-0.393 0.177c-0.104 0.112-0.167 0.244-0.167 0.398v1.023h-1.468v-1.023c0-0.156-0.055-0.292-0.161-0.403s-0.239-0.172-0.393-0.172c-0.156 0-0.291 0.064-0.399 0.177-0.106 0.112-0.167 0.244-0.167 0.398v3.201c0 0.156 0.055 0.292 0.167 0.402 0.11 0.108 0.244 0.163 0.399 0.163s0.289-0.055 0.395-0.165c0.108-0.11 0.159-0.246 0.159-0.4v-1.134h1.468v1.134c0 0.156 0.055 0.29 0.163 0.4z"></path>
<path fill="#fff" style="fill: var(--color1, #fff)" d="M9.090 24.109c-0.104 0.112-0.167 0.244-0.167 0.398v3.196c0 0.154 0.055 0.29 0.163 0.4s0.244 0.165 0.397 0.165c0.154 0 0.289-0.055 0.397-0.165 0.108-0.108 0.163-0.241 0.163-0.395v-3.201c0-0.156-0.053-0.292-0.161-0.404-0.106-0.111-0.239-0.172-0.393-0.172-0.156 0-0.29 0.064-0.398 0.177z"></path>
<path fill="#fff" style="fill: var(--color1, #fff)" d="M31.37 9.983h-23.457l23.030-4.452c0.164-0.032 0.309-0.127 0.403-0.266s0.128-0.309 0.096-0.473l-0.696-3.594c-0.066-0.342-0.397-0.565-0.739-0.499l-6.6 1.276c-0.014 0.002-0.028 0.005-0.041 0.008l-19.95 3.856c-0.002 0-0.004 0.001-0.006 0.001l-2.899 0.56c-0.164 0.032-0.309 0.127-0.403 0.266s-0.128 0.309-0.097 0.473l0.685 3.534v20.009c0 0.348 0.282 0.63 0.63 0.63h12.034c0.348 0 0.63-0.282 0.63-0.63s-0.282-0.63-0.63-0.63h-11.404v-15.148h28.783v15.148h-11.705c-0.348 0-0.63 0.282-0.63 0.63s0.282 0.63 0.63 0.63h12.335c0.348 0 0.63-0.282 0.63-0.63v-20.070c0-0.348-0.282-0.63-0.63-0.63zM21.268 13.644l1.802-2.401h3.506l-1.802 2.401h-3.506zM16.185 13.644l1.801-2.401h3.508l-1.802 2.401h-3.507zM11.101 13.644l1.802-2.401h3.507l-1.801 2.401h-3.508zM6.018 13.644l1.802-2.401h3.507l-1.802 2.401h-3.507zM1.957 10.613c0-0.355 0.289-0.644 0.645-0.644s0.645 0.289 0.645 0.644c0 0.355-0.289 0.644-0.645 0.644s-0.645-0.289-0.645-0.644zM8.379 6.164l2.521 1.958-3.347 0.647-2.52-1.958 3.345-0.647zM13.369 5.199l2.521 1.958-3.345 0.647-2.521-1.958 3.345-0.646zM18.36 4.234l2.52 1.958-3.345 0.646-2.52-1.958 3.345-0.647zM23.352 3.27l2.519 1.958-3.345 0.647-2.52-1.958 3.347-0.647zM30.084 4.413l-2.568 0.496-2.519-1.958 4.631-0.895 0.456 2.356zM3.388 7.128l2.52 1.958-1.81 0.35c-0.349-0.443-0.89-0.728-1.496-0.728-0.347 0-0.672 0.094-0.952 0.256l-0.28-1.446 2.019-0.39zM1.957 12.405c0.202 0.073 0.419 0.113 0.645 0.113 0.83 0 1.537-0.533 1.798-1.274h1.845l-1.802 2.401h-2.485v-1.239zM26.351 13.644l1.802-2.401h2.586v2.401h-4.388z"></path>
<path fill="#fff" style="fill: var(--color1, #fff)" d="M28.196 21.616c0.348 0 0.63-0.282 0.63-0.63v-2.578c0-0.348-0.282-0.63-0.63-0.63h-24.050c-0.348 0-0.63 0.282-0.63 0.63v2.578c0 0.348 0.282 0.63 0.63 0.63h24.050zM27.566 20.356h-7.012v-1.318h7.012v1.318zM19.293 20.356h-7.286v-1.318h7.286v1.318zM4.776 19.038h5.97v1.318h-5.97v-1.318z"></path>
<path fill="#fff" style="fill: var(--color1, #fff)" d="M16.22 30.053h-0.010c-0.348 0-0.63 0.282-0.63 0.63s0.282 0.63 0.63 0.63h0.010c0.348 0 0.63-0.282 0.63-0.63s-0.282-0.63-0.63-0.63z"></path>
</symbol>
<symbol id="icon-cinema" viewBox="0 0 32 32">
<path fill="#fff" style="fill: var(--color1, #fff)" d="M29.971 1.252l-0.516-0.128c-5.717-1.424-11.695-1.424-17.412 0l-0.515 0.128c-1.193 0.297-2.031 1.369-2.029 2.599v3.73c-2.663 0.754-5.231 1.813-7.652 3.155l-0.468 0.258c-1.076 0.594-1.607 1.847-1.286 3.033l1.559 5.83c1.406 5.232 5.274 9.451 10.365 11.304l1.607 0.589c1.907 0.686 4.038 0.113 5.345-1.435l1.097-1.311c1.022-1.215 1.86-2.573 2.489-4.031 0.338-0.131 0.66-0.301 0.96-0.505l1.401-0.981c4.438-3.11 7.082-8.188 7.084-13.607v-6.031c0.001-1.229-0.836-2.302-2.029-2.599zM19.246 28.317l-1.098 1.312c-1.017 1.204-2.675 1.65-4.158 1.116l-1.607-0.589c-4.762-1.734-8.381-5.681-9.696-10.575l-1.56-5.83c-0.192-0.711 0.126-1.461 0.77-1.817l0.467-0.258c2.26-1.253 4.653-2.252 7.134-2.979v1.186c0.004 4.799 2.082 9.362 5.699 12.515-0.942 0.383-1.937 0.622-2.951 0.709l-4.029 0.327c-0.244 0.019-0.444 0.201-0.486 0.443s0.085 0.48 0.308 0.58l5.341 2.411c1.163 0.527 2.536 0.16 3.281-0.878l1.169-1.626 0.153 0.107c0.811 0.566 1.776 0.869 2.765 0.868 0.161 0 0.316-0.020 0.474-0.036-0.538 1.079-1.202 2.091-1.978 3.015zM16.142 23.16c0.146 0.107 0.289 0.223 0.439 0.328l0.371 0.26-1.161 1.616c-0.447 0.622-1.271 0.842-1.969 0.525l-3.449-1.554 1.96-0.161c1.32-0.111 2.609-0.454 3.809-1.014zM30.929 9.882c-0.002 5.070-2.475 9.819-6.627 12.729l-1.401 0.981c-1.293 0.901-3.010 0.901-4.302 0l-1.401-0.981c-4.152-2.909-6.625-7.659-6.627-12.729v-6.031c0-0.737 0.502-1.38 1.217-1.559l0.516-0.129c5.546-1.381 11.346-1.381 16.892 0l0.516 0.129c0.715 0.179 1.217 0.822 1.217 1.559v6.031z"></path>
<path fill="#fff" style="fill: var(--color1, #fff)" d="M18.763 10.057l0.731-0.784c-1.675-1.671-4.387-1.671-6.062 0l-0.027 0.027 0.784 0.731c0.607-0.608 1.433-0.947 2.292-0.942s1.681 0.354 2.281 0.969z"></path>
<path fill="#fff" style="fill: var(--color1, #fff)" d="M22.004 9.273l-0.027 0.027 0.784 0.731c0.607-0.608 1.433-0.947 2.292-0.942s1.681 0.354 2.281 0.969l0.731-0.784c-1.675-1.671-4.386-1.671-6.062 0z"></path>
<path fill="#fff" style="fill: var(--color1, #fff)" d="M7.639 17.822c0.838-0.225 1.73-0.101 2.476 0.342l0.499-0.949c-2.050-1.183-4.671-0.481-5.855 1.568l-0.019 0.033 0.463 0.268 0.482 0.235c0.425-0.74 1.128-1.279 1.953-1.496z"></path>
<path fill="#fff" style="fill: var(--color1, #fff)" d="M26.546 15.044l-3.976 0.723c-1.204 0.22-2.439 0.22-3.643 0l-3.977-0.723c-0.24-0.044-0.48 0.081-0.582 0.302s-0.042 0.485 0.147 0.639l4.537 3.711c0.988 0.804 2.405 0.804 3.392 0l4.536-3.712c0.189-0.155 0.25-0.418 0.147-0.639s-0.342-0.346-0.582-0.302v0.001zM21.767 18.868c-0.593 0.483-1.443 0.483-2.036 0l-2.933-2.399 1.938 0.352c1.331 0.243 2.694 0.243 4.025 0l1.938-0.352-2.932 2.399z"></path>
</symbol>
<symbol id="icon-star" viewBox="0 0 32 32">
<path fill="#ffb800" style="fill: var(--color2, #ffb800)" d="M7.224 30.886c-0.772 0.396-1.648-0.298-1.492-1.184l1.66-9.46-7.046-6.712c-0.658-0.628-0.316-1.776 0.566-1.9l9.796-1.392 4.368-8.654c0.394-0.78 1.46-0.78 1.854 0l4.368 8.654 9.796 1.392c0.882 0.124 1.224 1.272 0.566 1.9l-7.046 6.712 1.66 9.46c0.156 0.886-0.72 1.58-1.492 1.184l-8.782-4.512-8.776 4.512z"></path>
</symbol>
<symbol id="icon-signin" viewBox="0 0 30 32">
<path fill="#fff" style="fill: var(--color1, #fff)" d="M21.096 20.303c0.928-0.488 1.99-0.765 3.122-0.765h0.004c0.115 0 0.169-0.135 0.084-0.21-1.177-1.032-2.52-1.866-3.977-2.468-0.015-0.008-0.031-0.011-0.046-0.019 2.381-1.691 3.931-4.44 3.931-7.541 0-5.138-4.249-9.3-9.491-9.3s-9.488 4.162-9.488 9.3c0 3.101 1.549 5.85 3.935 7.541-0.015 0.008-0.031 0.011-0.046 0.019-1.714 0.709-3.252 1.725-4.575 3.023-1.315 1.284-2.363 2.806-3.083 4.481-0.709 1.64-1.092 3.398-1.127 5.179-0.001 0.040 0.006 0.080 0.021 0.117s0.037 0.071 0.066 0.1 0.063 0.051 0.1 0.067c0.038 0.016 0.078 0.024 0.119 0.024h2.297c0.165 0 0.303-0.131 0.307-0.292 0.077-2.895 1.262-5.606 3.359-7.661 2.167-2.126 5.051-3.296 8.118-3.296 2.174 0 4.261 0.589 6.059 1.691 0.046 0.028 0.099 0.044 0.154 0.046s0.109-0.010 0.157-0.035zM14.726 15.75c-1.756 0-3.409-0.671-4.656-1.89-0.613-0.598-1.099-1.309-1.43-2.092s-0.501-1.622-0.499-2.468c0-1.721 0.686-3.341 1.929-4.56s2.895-1.89 4.656-1.89c1.76 0 3.409 0.671 4.656 1.89 0.613 0.598 1.099 1.309 1.43 2.092s0.5 1.622 0.499 2.468c0 1.721-0.687 3.341-1.929 4.56-1.246 1.219-2.899 1.89-4.656 1.89zM28.831 24.675h-3.221v-3.15c0-0.165-0.138-0.3-0.307-0.3h-2.148c-0.169 0-0.307 0.135-0.307 0.3v3.15h-3.221c-0.169 0-0.307 0.135-0.307 0.3v2.1c0 0.165 0.138 0.3 0.307 0.3h3.221v3.15c0 0.165 0.138 0.3 0.307 0.3h2.148c0.169 0 0.307-0.135 0.307-0.3v-3.15h3.221c0.169 0 0.307-0.135 0.307-0.3v-2.1c0-0.165-0.138-0.3-0.307-0.3z"></path>
</symbol>
<symbol id="icon-bell" viewBox="0 0 29 32">
<path fill="#fff" style="fill: var(--color1, #fff)" d="M13.289 31.357c0.56-0.014 1.097-0.237 1.517-0.63s0.695-0.931 0.776-1.518h-4.676c0.084 0.603 0.372 1.154 0.81 1.549s0.997 0.608 1.572 0.599z"></path>
<path fill="none" stroke="#fff" style="stroke: var(--color1, #fff)" stroke-linejoin="miter" stroke-linecap="butt" stroke-miterlimit="4" stroke-width="1.3333" d="M13.289 31.357c0.56-0.014 1.097-0.237 1.517-0.63s0.695-0.931 0.776-1.518h-4.676c0.084 0.603 0.372 1.154 0.81 1.549s0.997 0.608 1.572 0.599z"></path>
<path fill="#fff" style="fill: var(--color1, #fff)" d="M26.362 24.553c-0.863-0.786-1.618-1.687-2.246-2.679-0.685-1.369-1.096-2.865-1.208-4.398v-4.517c-0.004-0.549-0.051-1.096-0.143-1.637-0.704-0.144-1.381-0.403-2.004-0.768 0.237 0.782 0.358 1.595 0.358 2.414v4.517c0.11 1.871 0.613 3.695 1.477 5.349 0.618 1 1.351 1.921 2.183 2.743h-22.917c0.833-0.822 1.566-1.743 2.183-2.743 0.863-1.654 1.367-3.478 1.476-5.349v-4.526c-0.005-1.058 0.195-2.107 0.587-3.086s0.97-1.87 1.7-2.621c0.73-0.751 1.597-1.347 2.553-1.755s1.981-0.619 3.016-0.621c1.516 0.001 2.997 0.459 4.259 1.317-0.139-0.522-0.217-1.059-0.233-1.6v-0.576c-0.934-0.47-1.938-0.779-2.971-0.914v-1.152c0-0.324-0.126-0.634-0.35-0.863s-0.528-0.358-0.845-0.358c-0.317 0-0.621 0.129-0.845 0.358s-0.35 0.539-0.35 0.863v1.198c-2.313 0.333-4.429 1.51-5.959 3.313s-2.369 4.111-2.364 6.497v4.517c-0.112 1.533-0.523 3.029-1.208 4.398-0.617 0.99-1.36 1.891-2.21 2.679-0.095 0.086-0.172 0.191-0.224 0.309s-0.080 0.247-0.080 0.376v1.244c0 0.242 0.094 0.475 0.262 0.647s0.395 0.268 0.633 0.268h24.877c0.237 0 0.465-0.096 0.633-0.268s0.262-0.404 0.262-0.647v-1.244c-0-0.13-0.027-0.258-0.080-0.376s-0.129-0.224-0.224-0.309z"></path>
<path fill="#000" style="fill: var(--color3, #000)" d="M23.955 9.422c2.455 0 4.444-2.109 4.444-4.711s-1.99-4.711-4.444-4.711c-2.455 0-4.444 2.109-4.444 4.711s1.99 4.711 4.444 4.711z"></path>
<path fill="none" stroke="#fff" style="stroke: var(--color1, #fff)" stroke-linejoin="miter" stroke-linecap="butt" stroke-miterlimit="4" stroke-width="1.3333" d="M23.955 9.422c2.455 0 4.444-2.109 4.444-4.711s-1.99-4.711-4.444-4.711c-2.455 0-4.444 2.109-4.444 4.711s1.99 4.711 4.444 4.711z"></path>
</symbol>
<symbol id="icon-lock" viewBox="0 0 30 32">
<path fill="#fff" style="fill: var(--color1, #fff)" d="M28.535 29.265v-13.511c0.269-0.007 0.524-0.119 0.712-0.312s0.293-0.451 0.293-0.72v-3.504c0-0.102-0.041-0.2-0.113-0.272s-0.17-0.113-0.272-0.113h-1.452c-0.102 0-0.2 0.041-0.272 0.113s-0.113 0.17-0.113 0.272v0.783h-0.784v-0.783c0-0.102-0.041-0.2-0.113-0.272s-0.17-0.113-0.272-0.113h-1.452c-0.102 0-0.2 0.041-0.272 0.113s-0.113 0.17-0.113 0.272v0.783h-0.784v-0.783c0-0.102-0.041-0.2-0.113-0.272s-0.17-0.113-0.272-0.113h-1.452c-0.102 0-0.2 0.041-0.272 0.113s-0.113 0.17-0.113 0.272v3.504c0 0.269 0.106 0.527 0.293 0.72s0.443 0.305 0.712 0.312v2.217h-1.593c-0.102 0-0.2 0.041-0.272 0.113s-0.113 0.17-0.113 0.272v0.783h-0.337v-8.218h0.652c0.075-0 0.148-0.022 0.211-0.063s0.112-0.099 0.142-0.168c0.030-0.069 0.039-0.144 0.027-0.218s-0.046-0.142-0.097-0.197l-5.37-5.798v-0.928l2.657-1.156c0.068-0.030 0.126-0.078 0.167-0.14s0.063-0.134 0.064-0.208-0.019-0.147-0.058-0.209c-0.039-0.063-0.096-0.113-0.163-0.144l-2.713-1.274c-0.041-0.075-0.105-0.135-0.184-0.169s-0.166-0.042-0.249-0.021-0.156 0.069-0.209 0.137c-0.053 0.068-0.081 0.151-0.081 0.236v3.876l-5.371 5.798c-0.051 0.055-0.085 0.123-0.097 0.197s-0.003 0.15 0.027 0.218 0.079 0.127 0.142 0.168c0.063 0.041 0.136 0.063 0.211 0.063h0.652v8.218h-0.337v-0.783c0-0.102-0.041-0.2-0.113-0.272s-0.17-0.113-0.272-0.113h-1.593v-2.217c0.269-0.007 0.524-0.119 0.712-0.312s0.293-0.451 0.293-0.72v-3.504c0-0.102-0.041-0.2-0.113-0.272s-0.17-0.113-0.272-0.113h-1.452c-0.102 0-0.2 0.041-0.272 0.113s-0.113 0.17-0.113 0.272v0.783h-0.784v-0.783c0-0.102-0.041-0.2-0.113-0.272s-0.17-0.113-0.272-0.113h-1.452c-0.102 0-0.2 0.041-0.272 0.113s-0.113 0.17-0.113 0.272v0.783h-0.784v-0.783c0-0.102-0.041-0.2-0.113-0.272s-0.17-0.113-0.272-0.113h-1.452c-0.102 0-0.2 0.041-0.272 0.113s-0.113 0.17-0.113 0.272v3.504c0 0.269 0.106 0.527 0.293 0.72s0.443 0.305 0.712 0.312v13.511c-0.48 0.020-0.933 0.225-1.266 0.571s-0.518 0.808-0.519 1.288v0.276c0 0.102 0.041 0.2 0.113 0.272s0.17 0.113 0.272 0.113h29.51c0.102 0 0.2-0.041 0.272-0.113s0.113-0.17 0.113-0.272v-0.276c-0.001-0.48-0.187-0.941-0.519-1.288s-0.786-0.551-1.266-0.571zM15.564 1.289l1.57 0.737-1.57 0.684v-1.421zM22.078 14.722v-3.119h0.683v0.783c0 0.102 0.041 0.2 0.113 0.272s0.17 0.113 0.272 0.113h1.553c0.102 0 0.2-0.041 0.272-0.113s0.113-0.17 0.113-0.272v-0.783h0.683v0.783c0 0.102 0.041 0.2 0.113 0.272s0.17 0.113 0.272 0.113h1.553c0.102 0 0.2-0.041 0.272-0.113s0.113-0.17 0.113-0.272v-0.783h0.683v3.119c-0 0.070-0.028 0.137-0.077 0.187s-0.117 0.077-0.187 0.077h-6.165c-0.070-0-0.137-0.028-0.187-0.077s-0.077-0.117-0.077-0.187zM15.18 5.194l4.593 4.958h-6.195c-0.102 0-0.2 0.040-0.272 0.113s-0.113 0.17-0.113 0.272c0 0.102 0.041 0.2 0.113 0.272s0.17 0.113 0.272 0.113h5.654v8.218h-0.265v-0.783c0-0.102-0.041-0.2-0.113-0.272s-0.17-0.113-0.272-0.113h-2.396c-0.102 0-0.2 0.041-0.272 0.113s-0.113 0.17-0.113 0.272v0.783h-1.242v-0.783c0-0.102-0.041-0.2-0.113-0.272s-0.17-0.113-0.272-0.113h-2.396c-0.102 0-0.2 0.041-0.272 0.113s-0.113 0.17-0.113 0.272v0.783h-0.265v-8.218h1.039c0.102 0 0.2-0.041 0.272-0.113s0.113-0.17 0.113-0.272c0-0.102-0.040-0.2-0.113-0.272s-0.17-0.113-0.272-0.113h-1.58l4.593-4.958zM9.253 18.74v0.783c0 0.102 0.041 0.2 0.113 0.272s0.17 0.113 0.272 0.113h2.14c0.102 0 0.2-0.041 0.272-0.113s0.113-0.17 0.113-0.272v-0.783h1.627v0.783c0 0.102 0.041 0.2 0.113 0.272s0.17 0.113 0.272 0.113h2.012c0.102 0 0.2-0.041 0.272-0.113s0.113-0.17 0.113-0.272v-0.783h1.627v0.783c0 0.102 0.041 0.2 0.113 0.272s0.17 0.113 0.272 0.113h2.14c0.102 0 0.2-0.041 0.272-0.113s0.113-0.17 0.113-0.272v-0.783h1.5v2.016h-0.729c-0.102 0-0.2 0.041-0.272 0.113s-0.113 0.17-0.113 0.272c0 0.102 0.041 0.2 0.113 0.272s0.17 0.113 0.272 0.113h0.729v3.163c0 0.102 0.041 0.2 0.113 0.272s0.17 0.113 0.272 0.113c0.102 0 0.2-0.041 0.272-0.113s0.113-0.17 0.113-0.272v-1.671h0.989c0.102 0 0.2-0.041 0.272-0.113s0.113-0.17 0.113-0.272-0.041-0.2-0.113-0.272c-0.072-0.072-0.17-0.113-0.272-0.113h-0.989v-3.893c-0-0.086-0.029-0.169-0.082-0.237s-0.127-0.116-0.21-0.136v-2.228h4.681v0.653h-1.017c-0.102 0-0.2 0.041-0.272 0.113s-0.113 0.17-0.113 0.272c0 0.102 0.041 0.2 0.113 0.272s0.17 0.113 0.272 0.113h1.017v11.042h-0.956c-0.102 0-0.2 0.041-0.272 0.113s-0.113 0.17-0.113 0.272c0 0.102 0.041 0.2 0.113 0.272s0.17 0.113 0.272 0.113h0.956v0.274h-4.39v-3.231c0-0.102-0.041-0.2-0.113-0.272s-0.17-0.113-0.272-0.113c-0.102 0-0.2 0.041-0.272 0.113s-0.113 0.17-0.113 0.272v1.408h-0.794c-0.102 0-0.2 0.041-0.272 0.113s-0.113 0.17-0.113 0.272 0.041 0.2 0.113 0.272c0.072 0.072 0.17 0.113 0.272 0.113h0.794v1.053h-4.869v-1.843h1.635c0.102 0 0.2-0.041 0.272-0.113s0.113-0.17 0.113-0.272c0-0.102-0.041-0.2-0.113-0.272s-0.17-0.113-0.272-0.113h-1.638c-0.013-0.368-0.118-0.726-0.305-1.043s-0.45-0.582-0.765-0.771l-1.288-0.769c-0.060-0.036-0.128-0.054-0.197-0.054s-0.138 0.019-0.197 0.054l-1.288 0.769c-0.326 0.196-0.597 0.473-0.785 0.804s-0.287 0.705-0.288 1.086v1.233h-1.047c-0.102 0-0.2 0.041-0.272 0.113s-0.113 0.17-0.113 0.272c0 0.102 0.041 0.2 0.113 0.272s0.17 0.113 0.272 0.113h1.047v0.534h-4.869v-2.351h0.729c0.102 0 0.2-0.041 0.272-0.113s0.113-0.17 0.113-0.272c0-0.102-0.041-0.2-0.113-0.272s-0.17-0.113-0.272-0.113h-0.729v-7.402h1.5zM16.969 26.727v2.536h-3.578v-2.536c0.001-0.248 0.065-0.491 0.187-0.707s0.298-0.396 0.511-0.523l1.091-0.652 1.091 0.652c0.212 0.128 0.388 0.308 0.51 0.523s0.187 0.459 0.187 0.707zM1.588 14.722v-3.119h0.683v0.783c0 0.102 0.041 0.2 0.113 0.272s0.17 0.113 0.272 0.113h1.553c0.102 0 0.2-0.041 0.272-0.113s0.113-0.17 0.113-0.272v-0.783h0.683v0.783c0 0.102 0.040 0.2 0.113 0.272s0.17 0.113 0.272 0.113h1.553c0.102 0 0.2-0.041 0.272-0.113s0.113-0.17 0.113-0.272v-0.783h0.683v3.119c-0 0.070-0.028 0.137-0.077 0.187s-0.117 0.077-0.187 0.077h-6.165c-0.070-0-0.137-0.028-0.187-0.077s-0.077-0.117-0.077-0.187zM6.254 23.083h0.73v3.355c-0.015 0.059-0.015 0.12 0 0.179v1.343h-0.989c-0.102 0-0.2 0.041-0.272 0.113s-0.113 0.17-0.113 0.272c0 0.102 0.041 0.2 0.113 0.272s0.17 0.113 0.272 0.113h0.989v0.534h-4.39v-9.1h1.015c0.102 0 0.2-0.041 0.272-0.113s0.113-0.17 0.113-0.272c0-0.102-0.041-0.2-0.113-0.272s-0.17-0.113-0.272-0.113h-1.015v-3.638h4.681v2.228c-0.083 0.021-0.157 0.069-0.21 0.136s-0.082 0.151-0.082 0.237v3.958h-0.73c-0.102 0-0.2 0.041-0.272 0.113s-0.113 0.17-0.113 0.272c0 0.102 0.041 0.2 0.113 0.272s0.17 0.113 0.272 0.113zM0.814 31.015c0.027-0.269 0.154-0.519 0.354-0.7s0.462-0.282 0.732-0.282h26.558c0.271 0 0.532 0.101 0.732 0.282s0.327 0.431 0.354 0.7h-28.731z"></path>
</symbol>
<symbol id="icon-rocket" viewBox="0 0 32 32">
<path fill="#fff" style="fill: var(--color1, #fff)" d="M15.125 22.527l-5.649-5.952c-0.074-0.078-0.114-0.183-0.112-0.291s0.048-0.21 0.127-0.285l9.242-8.771c0.011-0.010 0.021-0.020 0.032-0.030 1.84-1.402 4.254-1.764 7.379-1.106 0.081 0.017 0.154 0.058 0.211 0.118s0.094 0.136 0.107 0.217c0.497 3.157 0.007 5.548-1.492 7.312-0.009 0.011-0.019 0.022-0.030 0.031l-9.241 8.77c-0.078 0.074-0.182 0.114-0.29 0.112s-0.21-0.048-0.284-0.125zM10.346 16.309l5.089 5.362 8.931-8.475c1.302-1.54 1.729-3.568 1.336-6.361-2.769-0.536-4.816-0.216-6.424 1l-8.931 8.474z"></path>
<path fill="#fff" style="fill: var(--color1, #fff)" d="M7.422 15.632c-0.039-0.041-0.069-0.089-0.088-0.142s-0.027-0.109-0.023-0.165l0.055-0.81c0.050-0.826 0.337-1.619 0.826-2.286s1.161-1.178 1.933-1.473l0.050-0.019c1.655-0.61 3.481-0.559 5.099 0.144 0.058 0.029 0.109 0.072 0.147 0.125s0.063 0.114 0.073 0.179c0.010 0.065 0.003 0.131-0.018 0.193s-0.057 0.118-0.105 0.163l-4.153 3.942c-0.050 0.047-0.111 0.081-0.178 0.099s-0.137 0.017-0.204-0c-0.986-0.226-2.015-0.174-2.972 0.152-0.064 0.024-0.133 0.032-0.2 0.023s-0.132-0.036-0.187-0.076c-0.020-0.014-0.038-0.030-0.055-0.047zM10.267 11.137l0.142 0.381c-0.626 0.24-1.169 0.656-1.565 1.197s-0.627 1.185-0.666 1.854l-0.015 0.228c0.87-0.211 1.776-0.231 2.655-0.057l3.521-3.342c-1.273-0.381-2.635-0.345-3.886 0.103l-0.186-0.364z"></path>
<path fill="#fff" style="fill: var(--color1, #fff)" d="M15.961 24.629c-0.017-0.017-0.032-0.036-0.045-0.056-0.038-0.057-0.061-0.122-0.066-0.191s0.006-0.137 0.033-0.199c0.376-0.939 0.482-1.964 0.307-2.96-0.014-0.068-0.010-0.138 0.010-0.204s0.058-0.125 0.108-0.173l4.154-3.942c0.047-0.045 0.105-0.078 0.168-0.096s0.129-0.021 0.193-0.008c0.064 0.013 0.124 0.041 0.175 0.082s0.091 0.094 0.117 0.154c0.617 1.652 0.573 3.479-0.123 5.1l-0.021 0.049c-0.335 0.756-0.881 1.4-1.573 1.854s-1.499 0.699-2.326 0.706l-0.812 0.012c-0.056 0.001-0.112-0.010-0.164-0.032s-0.098-0.054-0.137-0.095zM17.029 21.285c0.127 0.887 0.060 1.79-0.196 2.648l0.228-0.004c0.67-0.004 1.325-0.201 1.886-0.568s1.004-0.887 1.277-1.499l0.392 0.117-0.375-0.158c0.513-1.226 0.62-2.584 0.306-3.875l-3.518 3.339z"></path>
<path fill="#fff" style="fill: var(--color1, #fff)" d="M20.411 11.856c-0.292-0.307-0.486-0.695-0.558-1.113s-0.018-0.848 0.154-1.235c0.172-0.387 0.456-0.715 0.814-0.941s0.776-0.341 1.2-0.33c0.424 0.011 0.835 0.148 1.181 0.392s0.612 0.587 0.764 0.982 0.183 0.828 0.090 1.241c-0.094 0.414-0.308 0.79-0.615 1.082-0.413 0.391-0.963 0.602-1.531 0.587s-1.107-0.254-1.499-0.666zM22.93 9.465c-0.181-0.191-0.415-0.324-0.671-0.382s-0.525-0.039-0.77 0.055c-0.246 0.094-0.458 0.259-0.609 0.474s-0.236 0.47-0.243 0.733 0.064 0.522 0.205 0.744c0.14 0.222 0.344 0.398 0.584 0.505s0.507 0.14 0.766 0.096 0.499-0.165 0.69-0.346c0.255-0.243 0.404-0.577 0.413-0.929s-0.122-0.694-0.364-0.95z"></path>
<path fill="#fff" style="fill: var(--color1, #fff)" d="M13.614 23.379l-5.069-5.341c-0.074-0.078-0.114-0.183-0.112-0.291s0.048-0.21 0.127-0.285l1.22-1.158c0.078-0.074 0.183-0.114 0.291-0.112s0.21 0.048 0.285 0.127l5.069 5.341c0.074 0.078 0.114 0.183 0.112 0.291s-0.048 0.21-0.127 0.285l-1.22 1.158c-0.078 0.074-0.183 0.114-0.291 0.112s-0.21-0.048-0.285-0.127zM9.416 17.773l4.509 4.751 0.63-0.598-4.509-4.751-0.63 0.598z"></path>
<path fill="#fff" style="fill: var(--color1, #fff)" d="M5.711 25.844c-0.177-0.204-0.288-0.456-0.32-0.724s0.016-0.54 0.139-0.78c0.333-0.812 0.559-1.664 0.673-2.535 0.24-1.486 0.43-2.661 3.041-3.82 0.077-0.034 0.162-0.044 0.245-0.027s0.158 0.058 0.216 0.119l3.929 4.14c0.058 0.061 0.096 0.138 0.108 0.222s-0.002 0.168-0.040 0.243c-0.322 0.687-0.756 1.315-1.286 1.857-0.833 0.791-1.686 0.891-2.674 1.007-0.867 0.076-1.721 0.262-2.542 0.554-0.245 0.111-0.517 0.146-0.782 0.1s-0.51-0.169-0.704-0.354l-0.002-0.002zM9.313 18.848c-1.959 0.927-2.086 1.71-2.308 3.088-0.124 0.935-0.368 1.85-0.726 2.723-0.111 0.261-0.102 0.495 0.022 0.626 0.123 0.13 0.354 0.149 0.616 0.052 0.88-0.314 1.797-0.515 2.728-0.599 0.946-0.112 1.572-0.185 2.209-0.789 0.399-0.407 0.732-0.873 0.988-1.383l-3.53-3.719z"></path>
<path fill="#fff" style="fill: var(--color1, #fff)" d="M8.493 23.184c-0.116-0.133-0.191-0.297-0.214-0.472s0.006-0.353 0.083-0.511c0.164-0.4 0.275-0.819 0.331-1.247 0.122-0.749 0.229-1.395 1.451-1.999 0.078-0.038 0.166-0.050 0.251-0.035s0.163 0.058 0.223 0.121l2.101 2.214c0.060 0.063 0.098 0.143 0.109 0.229s-0.006 0.173-0.048 0.249c-0.154 0.291-0.35 0.558-0.583 0.791-0.409 0.361-0.935 0.562-1.48 0.569-0.427 0.038-0.847 0.129-1.25 0.272-0.162 0.069-0.34 0.089-0.513 0.057s-0.333-0.114-0.459-0.237l-0.001-0.001zM10.24 19.825c-0.598 0.353-0.648 0.662-0.745 1.259-0.066 0.492-0.195 0.974-0.384 1.434-0.018 0.034-0.025 0.073-0.023 0.111 0.001-0.009 0.037-0.007 0.097-0.029 0.464-0.166 0.948-0.273 1.439-0.317 0.369 0.009 0.729-0.115 1.014-0.35 0.106-0.104 0.199-0.219 0.279-0.344l-1.676-1.764z"></path>
<path fill="#fff" style="fill: var(--color1, #fff)" d="M13.945 17.993c-0.074-0.078-0.114-0.183-0.112-0.291s0.048-0.21 0.127-0.285l1.731-1.642c0.078-0.074 0.183-0.114 0.291-0.112s0.21 0.048 0.285 0.127c0.074 0.078 0.114 0.183 0.112 0.291s-0.048 0.21-0.127 0.285l-1.731 1.642c-0.078 0.074-0.183 0.114-0.291 0.112s-0.21-0.048-0.285-0.127z"></path>
<path fill="#fff" style="fill: var(--color1, #fff)" d="M12.635 16.598c-0.074-0.078-0.114-0.183-0.112-0.291s0.048-0.21 0.127-0.285l0.761-0.722c0.078-0.074 0.183-0.114 0.291-0.112s0.21 0.048 0.285 0.127c0.074 0.078 0.114 0.183 0.112 0.291s-0.048 0.21-0.127 0.285l-0.761 0.722c-0.078 0.074-0.183 0.114-0.291 0.112s-0.21-0.048-0.285-0.127z"></path>
<path fill="#fff" style="fill: var(--color1, #fff)" d="M15.265 19.37c-0.074-0.078-0.114-0.183-0.112-0.291s0.048-0.21 0.127-0.285l0.761-0.722c0.078-0.074 0.183-0.114 0.291-0.112s0.21 0.048 0.285 0.127c0.074 0.078 0.114 0.183 0.112 0.291s-0.048 0.21-0.127 0.285l-0.761 0.722c-0.078 0.074-0.183 0.114-0.291 0.112s-0.21-0.048-0.285-0.127z"></path>
</symbol>
<symbol id="icon-action" viewBox="0 0 25 32">
<path fill="#fff" style="fill: var(--color1, #fff)" d="M0.007 20.216l0.526 3.158c0.022 0.133 0.095 0.253 0.203 0.335l4.079 3.059 0.474 1.423c0.035 0.105 0.102 0.196 0.192 0.261s0.197 0.099 0.308 0.099c0.029-0 0.058-0.002 0.087-0.007l0.252-0.042-0.312 0.935c-0.018 0.054-0.027 0.11-0.027 0.167v1.579c0 0.14 0.055 0.273 0.154 0.372s0.233 0.154 0.372 0.154h12.632c0.080 0 0.159-0.018 0.231-0.053s0.135-0.086 0.184-0.149c0.049-0.063 0.083-0.137 0.1-0.215s0.015-0.159-0.005-0.237l-0.317-1.26 3.23 1.846c0.116 0.066 0.252 0.086 0.382 0.055s0.243-0.109 0.317-0.22c0 0 1.095-1.657 1.101-1.669 0.002-0.005 0.551-2.179 0.551-2.179 0.029-0.116 0.018-0.239-0.032-0.348s-0.136-0.197-0.243-0.251l-1.053-0.526c-0.099-0.049-0.211-0.066-0.32-0.049s-0.21 0.069-0.288 0.147c0 0-1.148 1.173-1.174 1.243l-1.28-0.715 2.167-2.437c0.074-0.083 0.119-0.187 0.13-0.297l0.526-5.263c0.005-0.052 0.003-0.104-0.008-0.156l-0.824-4.12c-0.163-0.813-0.552-1.563-1.124-2.162s-1.302-1.025-2.107-1.226l-1.050-0.263-2.932-0.978-0.374-0.747v-0.797l0.316-0.237c0.065-0.049 0.118-0.113 0.155-0.186s0.056-0.154 0.056-0.235v-1.053c0.14 0 0.273-0.055 0.372-0.154s0.154-0.233 0.154-0.372v-2.023c0.349-1.074 0.526-2.197 0.526-3.326v-0.441c0-0.14-0.055-0.273-0.154-0.372s-0.233-0.154-0.372-0.154h-2.722c-1.063-0.003-2.085 0.408-2.85 1.145l-0.855 0.427c-0.441 0.221-0.812 0.56-1.071 0.979s-0.397 0.903-0.397 1.396c0 0.493 0.137 0.976 0.397 1.396s0.63 0.758 1.071 0.979l0.115 0.058c0.016 0.127 0.077 0.245 0.174 0.33s0.22 0.132 0.348 0.132v1.053c0 0.082 0.019 0.162 0.056 0.235s0.090 0.137 0.155 0.186l0.316 0.237v0.797l-0.381 0.762-2.352 0.941h-0.345c-1.201 0-2.363 0.426-3.28 1.202s-1.528 1.853-1.725 3.037l-0.309 1.854-2.019 2.524c-0.046 0.058-0.080 0.125-0.098 0.196s-0.022 0.146-0.010 0.219zM6.842 29.689l0.461-1.383 1.731-0.288c0.094-0.016 0.183-0.057 0.255-0.119s0.127-0.143 0.157-0.234l0.35-1.049 3.866 1.546-0.416 0.624c-0.073 0.11-0.102 0.243-0.082 0.373s0.088 0.248 0.191 0.33l1.46 1.168h-7.973v-0.967zM7.53 18.298l0.225 1.801-1.133-0.633 0.908-1.168zM11.895 14.445c0.213 0.158 0.471 0.244 0.737 0.244s0.524-0.086 0.737-0.244c0.991-0.747 1.651-1.851 1.84-3.078l0.052 0.017c-0.024 1.698-0.37 3.376-1.021 4.944-0.261 0.63-0.569 1.239-0.922 1.822l-0.16-0.032v-1.674c0-0.14-0.055-0.273-0.154-0.372s-0.233-0.154-0.372-0.154c-0.14 0-0.273 0.055-0.372 0.154s-0.154 0.233-0.154 0.372v1.694l-1.518 0.379-1.931-0.966c-0.052-0.026-0.107-0.043-0.165-0.050l-0.071-0.564v-4.874l1.64-0.656c0.197 1.21 0.854 2.298 1.834 3.037zM16.936 29.818l-0.659 0.659-1.887-1.51 0.685-1.027 0.505-0.168c0.005-0.002 0.009-0.004 0.014-0.005l1.843 1.053c-0.004 0.007-0.009 0.014-0.012 0.022l-0.488 0.976zM13.383 23.244l1.267-1.393c1.102-1.211 1.991-2.601 2.628-4.109l-0.942 3.296c-0.013 0.047-0.020 0.096-0.020 0.144v3.7l-2.933-1.639zM17.368 21.256l0.661-2.312 0.392 0.784v3.391l-1.053 1.474v-3.337zM17.368 12.094c0.003 3.347-1.245 6.573-3.498 9.048l-1.431 1.574-1.059-0.592 0.687-0.687c2.585-2.585 4.099-6.051 4.237-9.704l1.064 0.355v0.007zM8.896 20.736l-0.251-2.012 1.647 0.823c0.112 0.056 0.241 0.070 0.363 0.040l1.99-0.498 0.043 0.009c-0.412 0.566-0.868 1.099-1.364 1.595l-0.898 0.898-1.53-0.855zM5.968 20.306l5.203 2.908-0.556 0.835c-0.039 0.057-0.066 0.122-0.080 0.19s-0.014 0.138-0 0.206c0.013 0.068 0.040 0.133 0.079 0.19s0.088 0.107 0.146 0.146c0.058 0.038 0.122 0.065 0.19 0.079s0.138 0.013 0.206-0.001 0.133-0.041 0.19-0.080c0.057-0.039 0.107-0.089 0.145-0.147l0.602-0.903 0.74 0.413-0.639 0.959c-0.039 0.057-0.066 0.122-0.080 0.19s-0.014 0.138-0 0.206c0.013 0.068 0.040 0.133 0.079 0.19s0.088 0.107 0.146 0.146c0.058 0.038 0.122 0.065 0.19 0.079s0.138 0.013 0.206-0.001 0.133-0.041 0.19-0.080c0.057-0.039 0.107-0.089 0.145-0.147l0.685-1.027 1.823 1.019-0.774 1.245-0.233 0.078c-0.111 0.037-0.207 0.11-0.271 0.207l-0.040 0.060-4.489-1.796-1.503-1.503c-0.049-0.049-0.107-0.088-0.171-0.114s-0.132-0.040-0.202-0.040h-1.326l-1.688-2.11 1.087-1.398zM17.586 30.656l0.154-0.154c0.040-0.040 0.073-0.086 0.099-0.137l0.239-0.478 0.194 0.769h-0.686zM22.466 30.482l-6.373-3.641 0.404-0.65 6.433 3.595-0.464 0.696zM23.262 27.612l0.336 0.168-0.257 1.028-0.818-0.457 0.739-0.739zM20.382 13.361c0.465 0.464 0.781 1.055 0.909 1.699l0.808 4.043-0.501 5.015-2.207 2.483-1.547-0.864 1.531-2.144c0.064-0.089 0.098-0.196 0.098-0.306v-3.684c0-0.082-0.019-0.162-0.056-0.235l-0.997-1.994v-4.991l0.416 0.104c0.585 0.146 1.119 0.448 1.545 0.875zM10.526 5.919v-1.053h4.211v1.053h-0.928l-0.942-0.471c-0.073-0.037-0.154-0.056-0.235-0.056s-0.162 0.019-0.235 0.056l-0.942 0.471h-0.928zM8.947 4.077c-0.001-0.298 0.081-0.59 0.238-0.843s0.381-0.458 0.648-0.59l0.928-0.464c0.051-0.025 0.097-0.059 0.137-0.099 0.284-0.286 0.622-0.512 0.995-0.666s0.772-0.233 1.175-0.232h2.195c-0.008 0.891-0.138 1.776-0.387 2.632h-4.876c-0.14 0-0.273 0.055-0.372 0.154s-0.154 0.233-0.154 0.372v0.925c-0.166-0.15-0.299-0.333-0.39-0.538s-0.137-0.426-0.136-0.65zM11.579 6.972c0.082 0 0.162-0.019 0.235-0.056l0.817-0.409 0.817 0.409c0.073 0.037 0.154 0.056 0.235 0.056h0.526v0.789l-1.053 0.789h-1.053l-1.053-0.789v-0.789h0.526zM11.614 9.498c0.091 0.068 0.202 0.105 0.316 0.105h1.404c0.114 0 0.225-0.037 0.316-0.105l0.035-0.026v0.132c0 0.082 0.019 0.162 0.056 0.235l0.467 0.934c-0.019 0.552-0.16 1.092-0.415 1.582s-0.615 0.916-1.055 1.249c-0.030 0.023-0.067 0.035-0.105 0.035s-0.075-0.012-0.105-0.035c-0.44-0.332-0.801-0.759-1.055-1.249s-0.396-1.030-0.415-1.581l0.467-0.934c0.037-0.073 0.056-0.154 0.056-0.236v-0.132l0.035 0.026zM3.043 17.827c0.056-0.070 0.093-0.154 0.108-0.242l0.332-1.99c0.154-0.925 0.627-1.768 1.337-2.381s1.612-0.96 2.549-0.978v4.555l-1.826 2.348c-0.065 0.035-0.123 0.083-0.168 0.141s-0.078 0.126-0.095 0.198l-1.484 1.908c-0.073 0.093-0.112 0.208-0.111 0.327s0.041 0.233 0.115 0.325l2.105 2.632c0.049 0.062 0.112 0.111 0.183 0.145s0.149 0.052 0.228 0.052h1.361l1.195 1.195-0.323 0.97-2.402 0.4-0.384-1.152c-0.034-0.102-0.098-0.19-0.184-0.255l-4.042-3.031-0.453-2.718 1.958-2.448z"></path>
</symbol>
<symbol id="icon-hearts" viewBox="0 0 32 32">
<path fill="#fff" style="fill: var(--color1, #fff)" d="M31.698 12.905c0-2.305-0.876-4.466-2.466-6.086-1.599-1.628-3.744-2.525-6.039-2.525-2.923 0-5.608 1.465-7.193 3.876-1.585-2.41-4.27-3.876-7.193-3.876-2.295 0-4.44 0.897-6.039 2.525-1.59 1.619-2.466 3.781-2.466 6.086 0 2.16 0.625 3.423 1.128 4.438l0.055 0.11c2.080 4.214 13.71 13.88 14.204 14.289l0.311 0.258 0.312-0.257c0.012-0.010 1.109-0.915 2.671-2.27 1.456 1.298 2.613 2.259 2.625 2.269l0.311 0.258 0.312-0.257c0.306-0.252 7.498-6.2 8.729-8.798l0.034-0.072c0.297-0.625 0.704-1.481 0.704-2.783 0-1.13-0.331-2.199-0.957-3.113 0.421-0.903 0.957-2.204 0.957-4.073zM30.11 22.453l-0.035 0.073c-1.002 2.114-6.745 7.017-8.155 8.201-0.483-0.407-1.476-1.254-2.606-2.271-1.711-1.539-3.084-2.88-4.054-3.953-0.269-0.298-0.508-0.575-0.713-0.831-0.082-0.102-0.159-0.201-0.231-0.295-0.251-0.332-0.438-0.62-0.556-0.859l-0.020-0.041c-0.286-0.578-0.61-1.234-0.61-2.388 0-2.507 1.931-4.471 4.396-4.471 1.667 0 3.184 0.918 3.96 2.394l0.433 0.824 0.433-0.824c0.776-1.477 2.294-2.394 3.96-2.394 1.372 0 2.639 0.623 3.474 1.709 0.61 0.792 0.932 1.747 0.932 2.762 0 1.081-0.323 1.762-0.609 2.363zM30.042 16.145c-0.002-0.002-0.004-0.004-0.006-0.006-0.054-0.052-0.109-0.103-0.165-0.153-0.010-0.009-0.019-0.017-0.029-0.026-0.056-0.049-0.113-0.097-0.171-0.144-0.011-0.009-0.023-0.018-0.034-0.027-0.059-0.047-0.12-0.093-0.181-0.138-0.005-0.004-0.011-0.008-0.016-0.011-0.059-0.043-0.12-0.084-0.18-0.124-0.009-0.006-0.019-0.013-0.028-0.019-0.062-0.041-0.126-0.080-0.19-0.117-0.013-0.007-0.025-0.015-0.038-0.022-0.065-0.038-0.13-0.074-0.196-0.109-0.008-0.004-0.016-0.008-0.024-0.012-0.064-0.033-0.129-0.065-0.195-0.096-0.008-0.004-0.017-0.008-0.025-0.012-0.068-0.031-0.137-0.061-0.206-0.089-0.014-0.006-0.027-0.011-0.041-0.017-0.069-0.028-0.139-0.054-0.209-0.079-0.010-0.004-0.020-0.007-0.031-0.011-0.069-0.024-0.138-0.046-0.208-0.067-0.007-0.002-0.014-0.004-0.021-0.006-0.072-0.021-0.146-0.041-0.219-0.059-0.014-0.003-0.028-0.007-0.043-0.011-0.073-0.018-0.146-0.034-0.219-0.048-0.012-0.002-0.025-0.005-0.037-0.007-0.074-0.014-0.148-0.027-0.222-0.038-0.004-0.001-0.008-0.001-0.012-0.002-0.076-0.011-0.153-0.020-0.231-0.028-0.015-0.001-0.029-0.003-0.044-0.004-0.075-0.007-0.151-0.012-0.227-0.016-0.014-0.001-0.028-0.001-0.042-0.002-0.079-0.003-0.159-0.006-0.238-0.006-1.756 0-3.376 0.835-4.394 2.224-1.018-1.389-2.638-2.224-4.394-2.224-0.272 0-0.541 0.020-0.805 0.059-1.144 0.17-2.193 0.702-3.014 1.541-1.003 1.024-1.555 2.391-1.555 3.85 0 1.382 0.394 2.18 0.711 2.821l0.020 0.041c0.019 0.038 0.039 0.077 0.060 0.116 0.007 0.013 0.014 0.026 0.021 0.039 0.015 0.027 0.030 0.054 0.046 0.082 0.009 0.016 0.019 0.032 0.029 0.049 0.015 0.026 0.030 0.051 0.046 0.077 0.011 0.018 0.023 0.036 0.034 0.055 0.016 0.025 0.031 0.050 0.048 0.076 0.013 0.019 0.026 0.039 0.039 0.059 0.017 0.025 0.033 0.050 0.051 0.076 0.014 0.020 0.029 0.041 0.043 0.062 0.018 0.026 0.036 0.051 0.054 0.078 0.015 0.022 0.031 0.043 0.047 0.065 0.019 0.026 0.038 0.052 0.057 0.079 0.017 0.023 0.034 0.046 0.051 0.069 0.020 0.027 0.040 0.054 0.061 0.081 0.018 0.024 0.036 0.048 0.055 0.071 0.021 0.027 0.042 0.055 0.064 0.083 0.019 0.025 0.039 0.050 0.059 0.075 0.022 0.028 0.045 0.056 0.068 0.084 0.021 0.026 0.042 0.051 0.063 0.077 0.024 0.029 0.047 0.057 0.071 0.087 0.022 0.026 0.044 0.053 0.066 0.080 0.025 0.029 0.050 0.059 0.075 0.089 0.023 0.027 0.046 0.054 0.070 0.082 0.026 0.030 0.052 0.061 0.079 0.091 0.024 0.028 0.049 0.056 0.074 0.085 0.027 0.031 0.055 0.062 0.082 0.093 0.026 0.029 0.051 0.058 0.077 0.087 0.028 0.032 0.057 0.064 0.086 0.096 0.027 0.030 0.054 0.059 0.081 0.089 0.029 0.032 0.060 0.065 0.090 0.098 0.028 0.031 0.056 0.061 0.085 0.092 0.031 0.033 0.062 0.066 0.093 0.099 0.030 0.032 0.059 0.063 0.089 0.095 0.032 0.033 0.064 0.067 0.096 0.101 0.031 0.032 0.062 0.065 0.093 0.098 0.033 0.034 0.067 0.069 0.1 0.104 0.032 0.033 0.064 0.066 0.096 0.1 0.035 0.036 0.070 0.072 0.105 0.108 0.033 0.033 0.065 0.066 0.098 0.1 0.037 0.038 0.075 0.076 0.113 0.114 0.033 0.033 0.065 0.065 0.098 0.098 0.040 0.040 0.080 0.080 0.12 0.12 0.064 0.064 0.13 0.129 0.196 0.194 0.041 0.040 0.082 0.080 0.123 0.121 0.037 0.036 0.076 0.074 0.113 0.11 0.040 0.039 0.079 0.077 0.119 0.116s0.080 0.077 0.121 0.116c0.040 0.038 0.079 0.076 0.119 0.114 0.041 0.040 0.084 0.080 0.125 0.12 0.041 0.039 0.081 0.077 0.122 0.116s0.085 0.080 0.127 0.12c0.042 0.040 0.085 0.080 0.127 0.12s0.088 0.082 0.132 0.123c0.043 0.040 0.085 0.080 0.129 0.12 0.046 0.043 0.092 0.086 0.139 0.129 0.043 0.040 0.086 0.080 0.13 0.12 0.047 0.043 0.094 0.087 0.142 0.131 0.045 0.041 0.089 0.082 0.135 0.123 0.048 0.044 0.096 0.087 0.144 0.131 0.029 0.026 0.057 0.052 0.086 0.079-1.020 0.884-1.83 1.565-2.248 1.915-1.895-1.593-11.833-10.049-13.639-13.708l-0.055-0.111c-0.481-0.971-1.026-2.072-1.026-4.003 0-4.28 3.306-7.632 7.526-7.632 2.845 0 5.435 1.566 6.76 4.087l0.433 0.824 0.433-0.824c1.325-2.521 3.915-4.087 6.76-4.087 4.22 0 7.526 3.352 7.526 7.632-0 1.407-0.334 2.44-0.678 3.241z"></path>
<path fill="#fff" style="fill: var(--color1, #fff)" d="M9.245 0h-0.979v3.047h0.979v-3.047z"></path>
<path fill="#fff" style="fill: var(--color1, #fff)" d="M12.984 0.889l-1.279 2.766 0.888 0.411 1.279-2.766-0.888-0.411z"></path>
<path fill="#fff" style="fill: var(--color1, #fff)" d="M4.527 0.888l-0.888 0.411 1.279 2.766 0.888-0.411-1.279-2.766z"></path>
<path fill="#fff" style="fill: var(--color1, #fff)" d="M3.369 13.439c0-0.046 0-0.092 0.001-0.138l-0.979-0.020c-0.001 0.053-0.002 0.105-0.002 0.158 0 0.656 0.067 1.254 0.204 1.828l0.952-0.228c-0.119-0.498-0.177-1.022-0.177-1.601z"></path>
<path fill="#fff" style="fill: var(--color1, #fff)" d="M4.696 8.059c-1.172 1.102-1.958 2.592-2.212 4.195l0.967 0.153c0.22-1.39 0.901-2.681 1.916-3.635l-0.67-0.713z"></path>
<path fill="#fff" style="fill: var(--color1, #fff)" d="M16.278 16.677c-1.346 0.624-2.226 1.949-2.297 3.458l0.978 0.046c0.054-1.143 0.717-2.146 1.731-2.616l-0.412-0.888z"></path>
</symbol>
<symbol id="icon-search" viewBox="0 0 32 32">
<path  d="M31.008 27.231l-7.58-6.447c-0.784-0.705-1.622-1.029-2.299-0.998 1.789-2.096 2.87-4.815 2.87-7.787 0-6.627-5.373-12-12-12s-12 5.373-12 12 5.373 12 12 12c2.972 0 5.691-1.081 7.787-2.87-0.031 0.677 0.293 1.515 0.998 2.299l6.447 7.58c1.104 1.226 2.907 1.33 4.007 0.23s0.997-2.903-0.23-4.007zM12 20c-4.418 0-8-3.582-8-8s3.582-8 8-8 8 3.582 8 8-3.582 8-8 8z"></path>
</symbol>
</defs>
</svg>
